<?xml version="1.0" encoding="UTF-8" standalone="no"?><!DOCTYPE svg PUBLIC "-//W3C//DTD SVG 1.1//EN" "http://www.w3.org/Graphics/SVG/1.1/DTD/svg11.dtd"><svg width="100%" height="100%" viewBox="0 0 16 16" version="1.1" xmlns="http://www.w3.org/2000/svg" xmlns:xlink="http://www.w3.org/1999/xlink" xml:space="preserve" style="fill-rule:evenodd;clip-rule:evenodd;stroke-linejoin:round;stroke-miterlimit:1.41421;"><path d="M13.591,11.552l0,0.102c0,0.095 -0.01,0.196 -0.031,0.302c-0.02,0.105 -0.03,0.206 -0.03,0.301c0.013,0.259 0.047,0.527 0.102,0.802c0.055,0.276 0.082,0.541 0.082,0.793c0,0.17 -0.024,0.327 -0.072,0.469c-0.047,0.144 -0.129,0.273 -0.245,0.389c-0.082,0.082 -0.205,0.136 -0.368,0.164c-0.164,0.027 -0.341,0.085 -0.532,0.174c-0.136,0.061 -0.255,0.127 -0.357,0.199c-0.103,0.071 -0.205,0.107 -0.307,0.107c-0.13,0 -0.288,-0.029 -0.475,-0.087c-0.188,-0.058 -0.384,-0.129 -0.588,-0.215c-0.205,-0.084 -0.405,-0.175 -0.603,-0.27c-0.197,-0.096 -0.368,-0.184 -0.511,-0.266c-0.184,-0.095 -0.325,-0.204 -0.425,-0.327c-0.098,-0.123 -0.168,-0.271 -0.209,-0.445c-0.041,-0.174 -0.065,-0.381 -0.071,-0.623c-0.007,-0.242 -0.011,-0.537 -0.011,-0.884c0,-0.273 0.004,-0.583 0.011,-0.931c0.006,-0.347 0.01,-0.677 0.01,-0.991c0,-0.238 0.002,-0.492 0.005,-0.762c0.003,-0.269 -0.046,-0.512 -0.148,-0.73c-0.055,-0.055 -0.16,-0.089 -0.317,-0.103c-0.157,-0.013 -0.33,-0.02 -0.521,-0.02c-0.157,0 -0.316,0.004 -0.476,0.011c-0.16,0.006 -0.308,0.009 -0.444,0.009c-0.191,0 -0.356,-0.033 -0.496,-0.101c-0.14,-0.069 -0.281,-0.103 -0.424,-0.103c-0.068,0 -0.145,0.024 -0.23,0.072c-0.085,0.047 -0.128,0.149 -0.128,0.306c0,0.075 0.007,0.159 0.021,0.251c0.013,0.092 0.026,0.178 0.04,0.26c0.014,0.082 0.028,0.155 0.041,0.22c0.014,0.065 0.021,0.108 0.021,0.128c0,0.252 -0.01,0.497 -0.031,0.736c-0.021,0.238 -0.031,0.446 -0.031,0.623c0,0.15 0.014,0.324 0.041,0.522c0.027,0.197 0.057,0.405 0.087,0.623c0.031,0.218 0.06,0.443 0.087,0.675c0.027,0.231 0.041,0.453 0.041,0.664c0,0.354 -0.043,0.643 -0.128,0.864c-0.085,0.221 -0.221,0.395 -0.409,0.521c-0.187,0.126 -0.43,0.213 -0.73,0.261c-0.3,0.047 -0.662,0.071 -1.084,0.071c-0.197,0 -0.381,-0.054 -0.552,-0.164c-0.17,-0.108 -0.32,-0.233 -0.45,-0.373c-0.129,-0.139 -0.231,-0.274 -0.306,-0.403c-0.075,-0.13 -0.113,-0.218 -0.113,-0.266c0,-0.082 0.011,-0.165 0.031,-0.25c0.021,-0.085 0.045,-0.174 0.071,-0.266c0.028,-0.092 0.052,-0.184 0.072,-0.276c0.02,-0.092 0.031,-0.179 0.031,-0.261c0,-0.115 -0.014,-0.233 -0.041,-0.352c-0.027,-0.12 -0.056,-0.237 -0.087,-0.353c-0.031,-0.116 -0.058,-0.232 -0.082,-0.348c-0.024,-0.115 -0.036,-0.224 -0.036,-0.327c0,-0.176 0.021,-0.366 0.061,-0.567c0.042,-0.201 0.062,-0.39 0.062,-0.567c0,-0.259 -0.006,-0.528 -0.02,-0.807c-0.014,-0.28 -0.021,-0.566 -0.021,-0.859c0,-0.15 0.002,-0.297 0.005,-0.44c0.004,-0.143 0.016,-0.293 0.036,-0.45c0.014,-0.074 0.038,-0.132 0.072,-0.173c0.034,-0.041 0.051,-0.099 0.051,-0.174c0,-0.13 -0.021,-0.252 -0.061,-0.368c-0.042,-0.116 -0.062,-0.238 -0.062,-0.367c0,-0.232 0.014,-0.495 0.041,-0.788c0.027,-0.293 0.059,-0.594 0.097,-0.904c0.037,-0.31 0.07,-0.62 0.097,-0.93c0.028,-0.311 0.041,-0.602 0.041,-0.874c0,-0.171 -0.022,-0.345 -0.066,-0.521c-0.045,-0.178 -0.067,-0.345 -0.067,-0.502c0,-0.075 0.027,-0.175 0.082,-0.301c0.055,-0.126 0.135,-0.25 0.24,-0.373c0.106,-0.123 0.235,-0.23 0.389,-0.322c0.153,-0.092 0.328,-0.138 0.526,-0.138c0.218,0 0.404,0.025 0.557,0.077c0.153,0.051 0.279,0.117 0.378,0.199c0.099,0.082 0.171,0.17 0.215,0.266c0.044,0.095 0.066,0.187 0.066,0.275c0,0.157 -0.01,0.314 -0.03,0.471c-0.021,0.156 -0.031,0.272 -0.031,0.348c0.014,0.094 0.043,0.192 0.087,0.291c0.044,0.098 0.077,0.216 0.097,0.352c0.041,0.246 0.07,0.516 0.087,0.813c0.017,0.296 0.031,0.572 0.041,0.828c0.01,0.255 0.018,0.473 0.025,0.654c0.007,0.18 0.021,0.281 0.041,0.302c0.048,0.047 0.153,0.083 0.317,0.106c0.164,0.024 0.347,0.042 0.552,0.052c0.204,0.01 0.416,0.017 0.634,0.02c0.218,0.004 0.409,0.009 0.572,0.016c0.116,0.013 0.245,0.03 0.389,0.051c0.143,0.02 0.282,0.03 0.419,0.03c0.211,0 0.349,-0.054 0.414,-0.163c0.064,-0.109 0.097,-0.252 0.097,-0.429c0,-0.178 -0.016,-0.358 -0.046,-0.542c-0.031,-0.184 -0.046,-0.331 -0.046,-0.44c0,-0.102 0.022,-0.194 0.066,-0.276c0.044,-0.081 0.066,-0.163 0.066,-0.245c0,-0.348 -0.022,-0.7 -0.066,-1.058c-0.044,-0.357 -0.066,-0.69 -0.066,-0.996c0,-0.123 0.018,-0.274 0.056,-0.455c0.037,-0.181 0.104,-0.356 0.199,-0.527c0.096,-0.17 0.225,-0.317 0.388,-0.439c0.164,-0.123 0.375,-0.184 0.634,-0.184c0.177,0 0.384,0.029 0.618,0.087c0.235,0.058 0.462,0.131 0.68,0.219c0.218,0.089 0.416,0.19 0.593,0.302c0.177,0.112 0.3,0.223 0.368,0.332c0.061,0.096 0.104,0.21 0.128,0.343c0.024,0.133 0.041,0.276 0.051,0.429c0.01,0.153 0.015,0.31 0.015,0.47c0,0.16 0.007,0.312 0.021,0.455c0.013,0.205 0.031,0.433 0.051,0.685c0.02,0.252 0.046,0.514 0.077,0.787c0.03,0.272 0.069,0.548 0.117,0.828c0.048,0.279 0.112,0.545 0.194,0.797c0.027,0.102 0.065,0.196 0.113,0.281c0.047,0.085 0.093,0.167 0.138,0.245c0.044,0.078 0.081,0.154 0.112,0.225c0.031,0.072 0.043,0.142 0.036,0.21c0,0.095 -0.01,0.187 -0.031,0.276c-0.02,0.088 -0.03,0.191 -0.03,0.306c0,0.266 0.03,0.552 0.091,0.859c0.062,0.307 0.092,0.613 0.092,0.919c0,0.11 -0.003,0.216 -0.01,0.318c-0.007,0.102 -0.01,0.201 -0.01,0.296c0,0.102 0.013,0.206 0.041,0.312c0.027,0.106 0.058,0.209 0.092,0.312c0.034,0.102 0.065,0.204 0.092,0.306c0.027,0.103 0.044,0.205 0.051,0.307l0,0Z" style="fill:#1d1d1d;fill-rule:nonzero;stroke:#1b1b1b;stroke-width:0.35px;"/></svg>