<?xml version="1.0" encoding="UTF-8" standalone="no"?><!DOCTYPE svg PUBLIC "-//W3C//DTD SVG 1.1//EN" "http://www.w3.org/Graphics/SVG/1.1/DTD/svg11.dtd"><svg width="100%" height="100%" viewBox="0 0 250 190" version="1.1" xmlns="http://www.w3.org/2000/svg" xmlns:xlink="http://www.w3.org/1999/xlink" xml:space="preserve" style="fill-rule:evenodd;clip-rule:evenodd;stroke-linejoin:round;stroke-miterlimit:1.41421;"><g id="started"><path d="M188.858,190l-4.045,0l-1.513,-2.096l5.558,2.096Zm9.74,0l3.917,-0.997l-0.365,0.777l1.464,0.22l-5.016,0Zm-3.722,-88.429l0.134,0.207l-1.656,5.635l5.953,6.781l13.561,19.055l5.539,3.693l-3.788,-0.804l-15.881,0.47l-11.41,3.529l-4.353,6.588l0.588,10.705l6.823,11.646l1.997,0.47l-5.907,0.973l-7.106,7.194l2.891,8.751l-2.965,-4.11l-5.167,-4.306l-5.512,-2.067l-1.206,2.583l-5.856,-6.372l-2.928,-2.067l-1.55,3.789l-3.961,-8.095l-2.584,-3.789l-3.1,-0.689l-0.173,7.578l-3.961,-3.272l-1.55,-5.34l-6.717,-1.378l1.894,-8.095l-3.445,-3.617l-3.617,-3.617l-7.75,-12.401l-0.325,-2.76l9.759,3.365l15.975,2.982l2.343,5.751l5.325,6.39l7.455,3.195l6.604,-1.491l3.408,-6.603l-2.13,-7.029l-2.769,-3.408l7.029,-3.834l1.78,-5.873l5.213,0.168l5.929,-12.366l3.896,-2.88l3.271,-5.235Zm-126.363,58.897l-1.007,-5.901l-7.218,-5.54l-1.679,2.518l-1.678,6.547l-1.175,9.232l-2.854,0.671l-1.51,-1.343l-0.504,-6.882l-4.196,-9.568l-2.518,4.7l-4.532,4.7l-1.343,-3.525l-1.846,-10.071l-2.686,-4.7l-1.846,0.839l-1.008,3.357l-0.839,5.54l-2.014,0.839l-1.511,-6.546l-0.168,-19.639l0.211,-8.402l8.192,15.584l8.372,7.138l17.98,3.703l17.107,-3.142l-8.146,2.851l-0.862,9.817l-0.722,7.223Zm47.031,-93.979l-1.711,-2.228l3.525,-3.693l-1.114,-4.662l2.362,-0.945l2.992,0.315l1.732,-2.677l-2.362,-1.575l-2.992,-0.787l-0.787,-2.205l-1.575,-2.677l-2.991,-0.787l-1.89,-2.677l-0.157,-2.677l-2.677,-0.945l-1.733,-1.889l-0.629,-2.834l-1.103,-1.575l-0.157,-2.834l-0.158,-1.733l-0.357,-2.589l6.546,-8.225l7.05,-7.385l11.918,-6.043l2.686,-0.168l0.17,2.525l-3.863,10.104l-3.269,10.995l-1.297,5.978l2.985,5.544l5.118,4.691l15.992,-6.823l5.136,-1.203l-3.622,2.205l-1.26,2.204l-2.834,1.89l-2.835,2.992l0.945,2.204l-1.102,2.205l-4.252,1.417l-0.157,3.936l-0.787,2.205l1.574,1.575l-4.094,2.362l-0.315,2.676l-2.992,2.677l-3.306,2.835l1.102,1.259l-1.26,1.89l5.984,2.519l22.832,6.771l9.133,3.15l4.234,2.87l0.508,5.59l-3.219,10.673l-6.268,1.524l-4.235,0.678l-1.375,2.554l0.409,-6.135l-2.679,-5.357l-4.167,-4.763l-6.25,-4.018l-5.953,-1.488l-2.851,0.332c2.096,0.96 3.538,2.955 3.538,5.259c0,3.212 -2.803,5.824 -6.272,5.865l-0.083,0c-3.506,0 -6.354,-2.628 -6.354,-5.865c0,-0.988 0.265,-1.919 0.733,-2.736l0.046,-0.078l-3.044,2.283l-1.811,3.26l-2.34,-2.496l-6.607,-6.606l-0.508,-8.64l5.421,-4.574l3.726,-2.032l-4.743,-3.388Zm56.758,-14.993l9.399,-1.628l6.397,-5.331l6.397,-11.728l1.066,-9.808l-3.412,-11.941l2.559,0.64l4.691,4.051l6.823,8.316l0.64,9.169l0,8.434l-3.382,2.426l0,2.519l-1.732,2.047l-2.362,2.047l1.102,2.992l-0.945,1.732l-3.464,0.315l-2.047,2.047l-1.102,2.047l-2.677,1.575l-2.992,-2.047l-3.149,-0.473l-2.205,-2.834l-4.094,-1.102l-2.834,-0.158l-2.677,-3.307Z" style="fill:#fff;"/><path d="M18.709,190l28.924,-4.888l20.501,-7.996l3.69,-1.845l4.305,7.585l-1.389,7.144l-56.031,0Zm61.003,0l2.363,-2.223l10.045,-3.896l26.037,-4.305l23.986,0.82l20.501,6.561l4.058,3.043l-86.99,0Z" style="fill:#b4ccd5;"/><path d="M2.703,190l0,-5.258l3.062,-2.505l13.641,-6.681l18.93,-5.29l19.208,-1.948l9.465,1.113l3.897,5.29l-7.794,6.124l-15.59,4.176l-23.384,4.454l-5.043,0.525l-16.392,0Z" style="fill:#5c7a85;"/><path d="M203.614,190l-1.464,-0.22l4.588,-9.764l-3.177,-5.764l-3.176,-2.823l-9.999,-2.353l-6.823,-11.646l-0.588,-10.705l4.353,-6.588l3.45,-1.067l-1.345,1.067l-4.425,3.512l3.434,3.071l28.344,5.306l17.99,-1.423l4.329,-2.746l0.959,-0.608l0.435,12.181l-3.999,4.94l-8.117,0.589l-10.588,3.293l-1.176,8.353l-5.882,2.823l4.028,10.572l-11.151,0Z" style="fill:#b4ccd5;"/><path d="M221.135,137.749l0.828,0.299l15.919,3.754l2.2,5.436l-5.306,3.365l-17.99,1.423l-28.344,-5.306l-3.434,-3.071l5.77,-4.579l1.288,-1.022l4.315,-0.711l4.875,-0.803l2.588,-0.427l12.036,-0.259l5.255,1.901Z" style="fill:#5c7a85;"/><path d="M105.082,190l-12.069,-7.681l-5.207,-6.364l2.314,-3.182l4.918,0.579l4.917,4.917l7.811,6.364l9.928,5.367l-12.612,0Z" style="fill:#ffefbc;"/><path d="M116.636,112.42l8.52,2.982l14.485,4.261l9.585,0.213l8.733,-5.539l7.03,-2.13l7.242,3.621l4.686,4.9l-2.13,7.029l-7.029,3.834l2.769,3.408l2.13,7.029l-3.408,6.603l-6.604,1.491l-7.455,-3.195l-5.325,-6.39l-2.343,-5.751l-15.975,-2.982l-12.355,-4.26l-9.798,-5.538l4.26,-5.751l2.982,-3.835Z" style="fill:#ffefbc;"/><path d="M73.88,190l1.384,-3.513l-1.206,-8.956l-3.617,-3.445l-1.722,-3.789l-0.689,-4.995l1.205,-12.057l0.862,-9.817l13.779,-4.823l4.822,-3.1l1.551,-1.378l8.956,2.239l12.746,-3.445l1.894,-5.339l-0.861,-3.445l8.784,4.134l0.345,2.928l7.75,12.401l3.617,3.617l3.445,3.617l-0.344,3.1l-1.55,4.995l3.617,0.861l3.1,0.517l1.55,5.34l3.961,3.272l0.173,-7.578l3.1,0.689l2.584,3.789l3.961,8.095l1.55,-3.789l2.928,2.067l5.856,6.372l1.206,-2.583l5.512,2.067l5.167,4.306l5.517,7.646l-18.762,0l-1.395,-1.962l-14.641,-4.823l-16.362,-3.789l-19.119,0.861l-10.506,0.861l-9.646,-8.095l-5.511,0.517l-1.206,2.755l4.995,6.201l-6.028,3.272l-6.029,2.929l-0.566,1.273l-6.157,0Zm17.185,-115.084l1.474,7.104l-2.01,5.897l-0.939,2.681l1.073,4.557l-5.496,0.804l0,-2.948l-7.64,-9.517l-8.176,-5.897l8.31,-2.547l13.404,-0.134Z" style="fill:#985c4b;"/><path d="M188.858,190l-6.201,-2.339l-3.287,-9.948l7.106,-7.194l7.55,-1.244l8.26,3.02l5.7,7.363l8.704,-3.525l1.5,-7.495l10.866,-3.59l7.519,-0.268l4.498,-6.445l2.887,0.805l4.632,8.124l-1.812,6.579l-5.371,2.349l-4.364,6.647l-0.671,2.484l-0.739,4.677l-20.398,0l-4.104,-9.151l-4.583,-1.004l-3.997,9.148l-3.955,1.007l-9.74,0Zm-75.474,-86.168l1.959,6.765l-2.671,7.834l-3.026,3.026l2.848,3.027l0.89,3.917l-0.534,4.985l-8.189,3.383l-10.505,-0.356l-4.629,-1.425l-9.686,5.295l-18.705,3.436l-17.98,-3.703l-8.372,-7.138l-8.192,-15.584l-0.641,-15.009l4.746,-12.828l12.443,-11.289l10.776,-2.823l9.621,0.77l11.802,5.645l8.21,8.979l2.181,4.747l5.26,-0.642l6.029,3.977l6.158,-1.283l6.157,2.053l4.05,4.241Zm20.458,-17.595l2.851,-0.332l5.953,1.488l6.25,4.018l4.167,4.763l2.679,5.357l-0.446,6.697l-4.316,5.209l-5.507,1.488l-6.101,-0.446l-6.846,-1.935l-5.804,-3.125l-3.87,-3.423l-2.53,-5.209l-0.148,-5.804l2.232,-4.018l3.044,-2.283c-0.496,0.835 -0.779,1.794 -0.779,2.814c0,3.237 2.848,5.865 6.354,5.865c3.507,0 6.355,-2.628 6.355,-5.865c0,-2.304 -1.442,-4.299 -3.538,-5.259Z" style="fill:#fedcc3;"/><path d="M207.731,40.474l-1.259,1.732l-2.992,1.89l0,2.519l-1.732,2.047l-2.362,2.047l1.102,2.992l-0.945,1.732l-3.464,0.315l-2.047,2.047l-1.102,2.047l-2.677,1.575l-2.992,-2.047l-3.149,-0.473l-2.205,-2.834l-4.094,-1.102l-2.834,-0.158l-2.677,-3.307l-2.205,-0.629l-2.992,-5.354l-6.456,-8.503l-4.251,-2.677l-3.464,0.472l-3.622,2.205l-1.26,2.204l-2.834,1.89l-2.835,2.992l0.945,2.204l-1.102,2.205l-4.252,1.417l-0.157,3.936l-0.787,2.205l1.574,1.575l-4.094,2.362l-0.315,2.676l-2.992,2.677l-3.306,2.835l1.102,1.259l-1.26,1.89l5.984,2.519l22.832,6.771l9.133,3.15l6.141,2.677l2.52,0.472l2.519,-4.094l4.409,-2.992l-0.315,-5.354l-2.047,-1.574l8.818,-2.362l11.495,-4.567l5.511,-8.503l1.89,-8.503l1.102,-8.503Zm-103.612,-13.07l0.158,1.733l0.157,2.834l1.103,1.575l0.629,2.834l1.733,1.889l2.677,0.945l0.157,2.677l1.89,2.677l2.991,0.787l1.575,2.677l0.787,2.205l2.992,0.787l2.362,1.575l-1.732,2.677l-2.992,-0.315l-2.362,0.945l-5.354,-3.622l-5.826,-9.291l-3.464,-8.03l0.787,-6.929l1.732,-0.63Z" style="fill:#ebe4de;"/><path d="M115.544,66.489l-7.284,-6.438l-13.044,-1.524l-3.727,2.541l-1.863,8.639l-2.541,3.388l4.235,1.525l0.678,4.912l-1.864,7.962l-0.169,3.558l0.169,3.557l5.76,3.727l10.672,-0.339l6.268,4.574l2.71,9.147l19.82,6.946l13.891,1.863l8.978,-5.929l8.639,-2.033l9.656,9.317l5.252,0.17l5.929,-12.366l3.896,-2.88l3.388,-5.421l-1.355,-7.284l0.169,-3.727l-1.355,-4.743l-6.607,-3.219l-8.131,1.355l-4.743,3.219l-3.049,-0.339l0.508,5.59l-3.219,10.673l-6.268,1.524l-4.235,0.678l-3.557,6.606l-8.809,3.727l-8.639,-0.847l-7.284,-3.896l-6.607,-6.776l-1.016,-9.486l-2.541,-2.711l-6.607,-6.606l-0.508,-8.64l5.421,-4.574l3.726,-2.032l-4.743,-3.388Z" style="fill:#f55c22;"/><path d="M0.005,190c-0.065,-2.091 0.505,-4.147 1.56,-6.178c1.993,-2.442 5.058,-4.813 9.806,-7.073c0,0 5.973,-1.801 8.47,-2.746c0.329,-0.125 7.344,-2.21 7.607,-2.35c0.261,-0.139 1.872,-0.555 3.566,-0.922c1.694,-0.366 3.359,-0.781 3.685,-0.917c0.746,-0.313 5.201,-1.107 8.321,-1.484c1.309,-0.159 3.566,-0.442 5.022,-0.63l2.645,-0.342l-0.178,-2.54c-0.098,-1.397 -0.306,-2.943 -0.461,-3.433c-0.155,-0.49 -0.45,-1.694 -0.654,-2.674c-0.409,-1.962 -1.806,-5.212 -2.481,-5.775l-0.416,-0.347l-0.367,1.1c-0.319,0.959 -1.409,2.763 -3.481,5.765c-0.656,0.951 -2.203,2.361 -2.601,2.37c-0.169,0.004 -0.564,0.08 -0.921,0.179c-0.711,0.195 -1.027,-0.439 -1.565,-3.144c-0.341,-1.714 -0.407,-2.199 -0.953,-6.983c-0.655,-5.736 -3.534,-11.411 -4.251,-8.38c-0.086,0.362 -0.374,2.377 -0.645,4.517c-0.272,2.139 -0.6,4.141 -0.735,4.487c-0.338,0.862 -2.796,1.483 -3.409,0.862c-0.981,-0.995 -2.154,-5.973 -2.381,-10.104c-0.081,-1.471 -0.233,-4.012 -0.338,-5.646c-0.275,-4.28 -0.267,-19.067 0.011,-20.654c0.172,-0.981 0.109,-1.745 -0.223,-2.704c-0.587,-1.694 -0.55,-10.132 0.046,-10.728c0.197,-0.196 0.357,-0.966 0.357,-1.709c0,-0.737 0.203,-2.021 0.446,-2.823c0.351,-1.159 0.367,-1.521 0.074,-1.709c-0.267,-0.171 -0.276,-0.237 -0.03,-0.237c0.189,0 0.429,-0.387 0.535,-0.862c0.107,-0.476 0.453,-1.367 0.773,-1.991c0.32,-0.624 0.579,-1.435 0.579,-1.813c0,-1.684 3.983,-6.904 7.103,-9.31c0.743,-0.573 1.74,-1.395 2.243,-1.849c0.506,-0.455 0.999,-0.817 1.115,-0.817c0.112,0 0.386,-0.178 0.594,-0.386c0.791,-0.791 5.438,-3.268 9.005,-4.8c1.74,-0.747 4.19,-1.093 7.875,-1.113c4.427,-0.024 6.982,0.369 11.203,1.723l3.15,1.01l3.15,-1.486l-0.059,-1.099c-0.045,-0.832 0.067,-1.129 0.46,-1.219c0.386,-0.088 0.566,0.119 0.699,0.803c0.097,0.505 0.285,0.921 0.416,0.921c0.624,0 1.188,-0.424 1.188,-0.892c0,-0.654 0.753,-1.316 1.189,-1.046c0.164,0.102 0.297,0.378 0.297,0.615c0,0.324 0.208,0.387 0.832,0.254c1.427,-0.303 1.545,-0.378 1.545,-0.982c0,-0.98 0.644,-1.065 1.352,-0.178l0.64,0.802l0.183,-0.475c0.218,-0.569 1.065,-0.574 1.808,-0.011c0.614,0.466 2.08,0.356 2.763,-0.206c0.271,-0.223 0.654,-0.211 1.278,0.039c0.498,0.199 1.337,0.272 1.902,0.166c2.288,-0.431 6.107,1.172 6.116,2.568c0.004,0.714 -0.559,0.98 -2.074,0.98l-1.338,0l0.102,1.337c0.161,2.14 0.221,2.142 2.201,0.06c0.917,-0.965 3.7,-2.808 5.127,-3.397c1.975,-0.814 3.893,-0.837 7.577,-0.09l3.418,0.694l0.743,-0.951l-1.04,-0.535c-0.574,-0.295 -2.006,-0.888 -3.195,-1.323c-1.189,-0.434 -2.354,-0.954 -2.6,-1.159c-0.245,-0.204 -1.516,-0.592 -2.823,-0.862c-1.308,-0.269 -2.605,-0.613 -2.883,-0.765c-1.278,-0.695 -5.884,-0.015 -5.884,0.869c0,0.52 -0.921,1.219 -1.605,1.219c-0.386,0 -0.903,-0.239 -1.188,-0.55l-0.505,-0.55l0.333,-0.713c0.441,-0.943 2.49,-2.427 5.105,-3.699c1.189,-0.579 2.438,-1.205 2.764,-1.386c1.162,-0.646 6.032,-0.637 8.766,0.016c2.021,0.483 6.124,2.078 7.548,2.935c0.129,0.078 0.071,-0.184 -0.127,-0.57c-0.395,-0.773 -4.136,-4.398 -4.538,-4.398c-0.131,0 -0.803,-0.383 -1.486,-0.847c-0.684,-0.464 -1.584,-0.948 -1.991,-1.07c-0.408,-0.122 -1.159,-0.407 -1.664,-0.631c-1.478,-0.656 -3.18,-0.8 -5.052,-0.429c-1.873,0.371 -4.416,1.113 -5.26,1.535c-0.286,0.144 -0.892,0.253 -1.397,0.253l-0.891,0l0,-0.951c0,-1.266 0.534,-1.646 4.754,-3.38c2.526,-1.038 4.96,-1.119 6.835,-0.228c0.743,0.354 1.727,0.722 2.214,0.83c0.476,0.104 1.244,0.458 1.679,0.772c0.446,0.322 0.882,0.58 0.981,0.58c0.327,0 3.234,2.228 4.187,3.209c0.491,0.505 1.015,0.926 1.162,0.931c0.429,0.017 2.853,-2.744 2.853,-3.249c0,-0.772 -0.613,-2.674 -0.862,-2.674c-0.129,0 -0.713,-0.442 -1.278,-0.966c-0.577,-0.536 -2.184,-2.024 -3.611,-3.343c-1.426,-1.319 -2.786,-2.841 -3.055,-3.418c-0.416,-0.891 -2.218,-3.384 -2.784,-3.852c-0.439,-0.363 -2.674,-5.39 -2.674,-6.014c0,-0.368 -0.364,-1.218 -0.788,-1.842l-0.815,-4.458c-0.027,-3.328 0.17,-4.345 1.362,-7.013c0.982,-2.199 1.483,-3.116 1.875,-3.43c0.2,-0.159 0.847,-0.939 1.471,-1.771c0.624,-0.832 1.716,-2.041 2.481,-2.749l1.513,-1.857l3.863,-4.568c-0.138,-0.138 4.548,-4.186 5.531,-4.641c0.739,-0.342 2.05,-1.289 3.12,-1.816c1.07,-0.527 4.135,-2.423 4.665,-2.66c1.47,-0.656 6.312,-3.799 7.189,-0.876l0.27,1.812c0.068,1.006 -0.132,1.828 -0.802,3.314c-0.496,1.099 -0.984,2.345 -1.099,2.808c-0.114,0.454 -0.647,1.798 -1.174,2.957c-0.527,1.159 -1.061,2.544 -1.174,3.046l-0.179,0.792l-1.412,3.863l-0.46,-0.019l-0.534,2.526c-0.296,1.397 -0.682,2.778 -0.862,3.09c-0.179,0.309 -0.469,1.947 -0.639,3.611l-0.312,3.046l1.041,2.199c1.281,2.704 5.065,6.776 6.299,6.776c0.644,0 2.229,-0.95 3.982,-2.388c0.215,-0.176 1.07,-0.586 1.932,-0.925c2.169,-0.856 2.824,-1.174 4.635,-2.255c0.862,-0.515 2,-1.035 2.512,-1.148c0.51,-0.114 1.753,-0.58 2.734,-1.026c1.165,-0.529 2.748,-0.934 4.502,-1.149c2.853,-0.35 4.244,-0.218 5.438,0.516c1.449,0.891 6.152,5.997 6.947,7.543c0.443,0.861 1.206,2.113 1.686,2.763c0.478,0.649 1.512,2.303 2.273,3.641l1.397,2.451l2.689,0c1.486,0 3.222,-0.146 3.878,-0.327c0.659,-0.181 2.051,-0.419 3.121,-0.534c1.069,-0.115 2.276,-0.398 2.704,-0.634c1.317,-0.724 4.626,-5.072 5.173,-6.796c0.132,-0.416 0.415,-0.926 0.643,-1.159c0.238,-0.242 0.366,-0.582 0.383,-0.904l1.953,-3.649c0.326,-0.04 0.676,-0.161 0.862,-0.35c0.505,-0.511 0.959,-1.792 1.327,-3.739l1.047,-5.146c1.029,-4.202 -5.515,-17.163 -3.13,-17.177c0.921,-0.005 3.804,0.708 3.804,0.853c0,0.148 0.238,0.354 0.535,0.463c1.218,0.447 13.071,13.394 12.878,14.375c-0.519,2.645 0.562,13.895 0.91,14.026l-1.599,6.296c-0.112,0.137 -0.107,0.53 0.013,1.208c0.121,0.683 0.182,1.536 0.134,1.857c-0.049,0.325 -0.09,1.531 -0.09,2.66c0,1.278 -0.09,1.844 -0.237,1.486c-0.171,-0.418 -0.242,-0.223 -0.253,0.698c-0.009,0.832 -0.17,1.335 -0.46,1.441c-0.238,0.088 -0.446,0.372 -0.446,0.609c0,0.752 -0.964,3.448 -1.732,4.844c-0.408,0.743 -0.953,1.734 -1.225,2.229c-0.278,0.505 -0.613,1.085 -0.773,1.337c-0.15,0.238 -0.282,0.523 -0.282,0.61c0,0.09 -0.698,0.808 -1.56,1.604c-0.862,0.796 -1.5,1.535 -1.427,1.65c0.079,0.121 -0.014,0.219 -0.223,0.235c-0.832,0.063 -2.567,0.874 -2.358,1.102c0.12,0.13 -0.004,0.157 -0.271,0.059c-0.266,-0.096 -0.743,0.013 -1.041,0.238c-0.297,0.225 -0.734,0.423 -0.951,0.431c-0.216,0.008 -0.832,0.2 -1.337,0.416c-0.509,0.218 -1.709,0.632 -2.63,0.906c-0.921,0.275 -1.897,0.702 -2.139,0.937c-0.241,0.232 -0.699,0.43 -0.996,0.43c-0.293,0 -0.862,0.222 -1.218,0.476c-0.395,0.28 -1.04,0.421 -1.575,0.342c-0.565,-0.084 -0.957,0.006 -1.04,0.237c-0.088,0.245 -0.535,0.316 -1.308,0.208c-0.654,-0.091 -1.17,-0.044 -1.165,0.104c0.016,0.506 1.109,1.605 1.596,1.605c0.267,0 0.475,0.13 0.475,0.297c0,0.179 -0.089,0.297 -0.223,0.297c-0.123,0 -0.222,0.981 -0.222,2.2l0,2.199l1.916,0.178c1.04,0.097 1.992,0.294 2.081,0.431c0.087,0.135 0.475,0.35 0.832,0.46c0.356,0.112 0.668,0.34 0.668,0.491c0,0.146 0.193,0.282 0.401,0.282c0.219,0 0.949,0.594 1.605,1.308c0.657,0.713 1.319,1.192 1.456,1.055c0.152,-0.152 0.372,-0.171 0.55,-0.048c0.472,0.325 1.282,2.47 1.484,3.926c0.098,0.713 0.329,1.49 0.507,1.708c0.223,0.274 0.233,0.61 0.03,1.055c-0.163,0.359 -0.203,0.996 -0.089,1.412c0.114,0.417 0.234,2.021 0.267,3.566c0.033,1.545 0.187,2.935 0.342,3.091c0.154,0.154 0.282,0.802 0.282,1.426l0,1.144l-0.832,-0.091c-0.891,-0.098 -1.605,-1.216 -2.139,-3.356c-0.231,-0.925 -0.595,-1.385 -1.635,-2.07c-1.367,-0.9 -1.97,-2.022 -1.397,-2.596c0.209,-0.208 0.461,-0.204 0.847,0.015c0.297,0.169 0.455,0.316 0.342,0.321c-0.315,0.013 0.743,1.21 1.07,1.21c0.145,0 0.042,-0.253 -0.223,-0.55c-0.265,-0.297 -0.401,-0.638 -0.297,-0.743c0.101,-0.101 0.03,-0.193 -0.149,-0.193c-0.195,0 -0.342,-0.179 -0.342,-0.416c0,-0.716 -1.783,-2.272 -3.506,-3.059l-1.694,-0.775l-2.526,0.268c-1.397,0.148 -3.555,0.227 -4.829,0.178l-2.303,-0.089l0,-1.427l1.114,-0.312c0.613,-0.171 1.65,-0.312 2.303,-0.312c0.654,0 1.657,-0.133 2.229,-0.297c0.572,-0.163 2.11,-0.317 3.418,-0.342l2.377,-0.044l1.189,0.668c0.653,0.368 1.402,0.856 1.664,1.085c0.263,0.231 1.025,0.416 1.709,0.416l1.233,0l0,-0.891c0,-0.862 -0.957,-2.081 -1.635,-2.081c-0.177,0 -1.471,-0.575 -2.838,-1.263l-2.511,-1.262l-3.031,0.014c-2.199,0.011 -3.178,0.134 -3.566,0.446c-0.29,0.234 -1.01,0.692 -1.575,1.001c-1.218,0.667 -2.377,1.824 -2.377,2.372c0,0.205 -0.342,0.54 -0.728,0.713c-0.573,0.258 -0.922,0.232 -1.635,-0.119c-0.505,-0.248 -1.037,-0.366 -1.203,-0.267c-0.17,0.102 -0.297,0.044 -0.297,-0.134c0,-0.178 -0.109,-0.312 -0.253,-0.312c-0.141,0 -0.002,0.758 0.312,1.709c0.362,1.097 0.586,2.719 0.624,4.532l0.059,2.823l1.204,0.03c0.654,0.016 1.536,0.24 1.932,0.49c0.407,0.258 1.055,0.559 1.471,0.683c0.416,0.125 1.396,0.661 2.228,1.219c0.832,0.557 1.65,0.995 1.858,0.995c0.208,0 0.371,0.131 0.371,0.298c0,0.158 0.208,0.297 0.446,0.297c0.238,0 0.446,0.132 0.446,0.282c0,0.15 0.237,0.36 0.505,0.446c1.187,0.386 4.187,3.61 5.1,5.483c1.043,2.139 1.136,2.771 0.487,3.308c-0.606,0.501 -0.934,0.198 -1.778,-1.644c-0.408,-0.892 -1.397,-1.902 -1.491,-2.199c-0.094,-0.297 -3.886,-3.893 -4.161,-3.893c-0.112,0 -0.564,-0.278 -0.98,-0.603c-1.591,-1.241 -2.972,-2.019 -4.993,-2.812c-1.129,-0.443 -2.264,-0.995 -2.526,-1.228c-0.554,-0.492 -0.631,-0.409 -1.149,1.225c-0.48,1.516 -1.356,3.024 -2.417,4.161l-0.832,0.891l2.734,2.725c4.933,4.915 5.919,6.134 7.532,9.311l1.086,2.139l-0.416,0.268c-0.222,0.142 -0.728,0.219 -1.085,0.163c-0.356,-0.055 -0.668,-0.062 -0.668,-0.015c0,0.049 0.321,0.699 0.713,1.442c0.392,0.743 0.613,1.412 0.49,1.485c-0.122,0.074 -0.297,0.922 -0.386,1.873c-0.098,1.04 -0.467,2.323 -0.92,3.194c-0.756,1.456 -2.065,3.121 -2.453,3.121c-0.101,0 -0.52,0.232 -0.966,0.534c-0.438,0.298 -1.426,0.773 -2.229,1.07l-1.441,0.535l0.193,0.773c0.104,0.414 0.518,1.159 0.892,1.605c0.389,0.463 1.074,1.589 1.545,2.54l0.847,1.709l0,6.597l-1.471,1.754c-0.797,0.951 -2.022,2.283 -2.674,2.912l-1.204,1.159l-2.08,0.416c-2.606,0.521 -3.477,0.388 -7.073,-1.078c-4.576,-1.867 -6.044,-2.826 -7.264,-4.747c-0.585,-0.921 -1.149,-1.733 -1.265,-1.82c-0.535,-0.401 -2.428,-4.569 -3.156,-6.946c-0.307,-1.001 -1.509,-1.456 -4.778,-1.81c-2.301,-0.248 -2.11,-0.215 -5.884,-1.038c-1.575,-0.344 -3.105,-0.744 -3.373,-0.882c-0.268,-0.138 -1.501,-0.488 -2.719,-0.772c-1.219,-0.284 -3.131,-0.903 -4.22,-1.365c-3.536,-1.499 -3.785,-0.964 -1.027,2.212c2.993,3.447 5.396,7.383 6.024,9.866c0.183,0.724 1.362,2.042 3.888,4.343c1.991,1.814 3.061,3.495 3.061,4.81c0,0.581 -0.438,1.931 -0.993,3.06c-0.963,1.962 -1.19,3.429 -0.611,3.95c0.148,0.134 1.292,0.042 2.57,-0.205l2.303,-0.446l0.565,0.511c0.661,0.599 1.589,2.609 2.686,5.819c0.466,1.367 0.939,2.263 1.222,2.318l0.46,0.089l-0.109,-2.615c-0.122,-2.942 0.212,-3.935 1.476,-4.382c0.595,-0.21 1.115,-0.141 2.006,0.266c0.654,0.299 1.204,0.645 1.204,0.758c0,0.112 0.312,0.535 0.68,0.921c1.556,1.63 3.341,4.784 4.927,8.707l0.336,0.832l0.431,-0.342c0.236,-0.187 0.471,-0.757 0.52,-1.263c0.049,-0.505 0.331,-1.068 0.624,-1.248l0.535,-0.327l0.52,0.625c0.281,0.337 1.025,0.794 1.62,0.995c0.594,0.201 1.099,0.46 1.099,0.565c0,0.106 0.333,0.579 0.743,1.055c0.41,0.475 0.743,0.975 0.743,1.114c0,0.141 0.327,0.383 0.743,0.55c0.575,0.23 0.743,0.505 0.743,1.218c0,1.04 0.874,2.7 1.337,2.54c0.174,-0.06 0.254,-0.801 0.193,-1.782l-0.104,-1.679l0.491,0c0.267,0 0.551,0.203 0.624,0.446c0.071,0.237 0.196,0.653 0.267,0.891c0.106,0.354 0.297,0.384 0.921,0.149c0.597,-0.225 1.263,-0.151 2.749,0.306c2.021,0.622 3.234,1.397 4.961,3.171l1.012,1.04l0.312,-1.144c0.171,-0.624 0.312,-1.252 0.312,-1.382c0,-0.13 0.387,-1.07 0.857,-2.08c1.189,-2.556 3.441,-4.639 5.978,-5.527c3.299,-1.155 3.566,-1.269 3.566,-1.516c0,-0.153 -0.267,-0.41 -0.624,-0.601c-1.464,-0.781 -2.794,-2.341 -4.655,-5.462c-2.604,-4.365 -3.436,-10.519 -2.119,-15.661c0.579,-2.258 1.618,-4.741 2.079,-4.965c0.099,-0.048 1.01,-0.645 2.051,-1.344c2.169,-1.458 4.181,-2.576 4.635,-2.576c0.164,0 0.981,-0.331 1.813,-0.734c2.131,-1.032 5.112,-1.66 8.559,-1.802c8.499,-0.35 10.612,-0.523 10.748,-0.881c0.19,-0.506 -0.721,-2.229 -1.179,-2.229c-0.345,0 -5.528,1.149 -7.459,1.654l-0.832,0.218l0.104,-0.713c0.066,-0.457 0.371,-0.791 0.847,-0.928c3.803,-1.099 5.941,-1.867 5.936,-2.133c-0.011,-0.773 -0.379,-1.625 -0.766,-1.776c-0.649,-0.254 -3.774,0.51 -7.102,1.735c-3.388,1.247 -3.761,1.33 -3.921,0.873c-0.113,-0.325 3.327,-2.53 4.515,-2.893c1.427,-0.437 4.638,-1.626 4.785,-1.773c0.097,-0.097 -1.664,-3.239 -1.664,-3.239l-1.1,0.208c-0.606,0.115 -2.258,0.597 -3.685,1.074c-2.764,0.926 -3.415,1.031 -3.679,0.59c-0.23,-0.384 2.045,-1.708 4.363,-2.54c2.496,-0.896 2.699,-1.303 1.343,-2.69c-0.611,-0.624 -1.106,-1.236 -1.106,-1.367c0,-0.44 -1.278,-0.286 -2.971,0.359c-0.892,0.339 -3.032,0.949 -3.032,0.949c0,0 0.951,-1.495 2.14,-2.081c1.07,-0.526 1.967,-1.057 2.011,-1.188c0.154,-0.462 -5.726,-6.627 -6.32,-6.627c-0.203,0 -2.526,1.515 -2.526,1.515l-0.022,-1.723c-0.033,-2.437 -0.142,-3.017 -0.861,-4.547c-2.107,-4.487 -4.028,-6.95 -7.289,-9.348c-0.654,-0.481 -1.259,-0.968 -1.345,-1.083c-0.265,-0.354 -2.756,-1.456 -3.291,-1.456c-0.773,0 -2.065,-1.128 -1.872,-1.634c0.484,-1.265 5.349,0.455 8.35,2.953c2.734,2.275 4.807,4.337 5.006,4.981c0.092,0.297 0.271,0.535 0.403,0.535c0.292,0 3.001,5.23 3.001,5.795c0,0.505 2.482,2.393 3.136,2.972c0.653,0.579 4.02,4.486 4.353,4.388c0.153,-0.045 2.021,2.268 2.021,2.268l0.772,-0.291c1.189,-0.447 2.054,-0.325 2.686,0.381c0.639,0.713 1.101,1.74 0.762,1.693c-0.113,-0.016 -2.734,0.03 -2.734,0.03l0.52,0.817c0.284,0.446 1.56,1.769 1.56,2.006c0,0.565 0.505,0.565 1.07,0c0.694,-0.694 2.108,-0.594 2.527,0.179l0.355,0.653l-1.872,1.546l0.563,0.921c0.854,1.397 1.584,2.177 1.874,2.003c0.151,-0.091 3.638,6.96 6.148,9.111c1.993,1.708 3.825,2.003 5.977,2.972c0.42,0.053 1.145,0.551 1.485,0.594c3.285,0.414 6.279,1.516 9.51,2.08c2.674,0.148 5.438,1.281 5.438,1.281c1.545,0.987 3.744,3.287 3.832,4.009c0.033,0.276 0.071,1.516 0.083,2.734c0.02,2.14 0.307,6.151 0.63,8.826l0.15,1.248l1.575,0.886c1.783,1.003 3.941,3.335 4.213,4.552c0.099,0.446 0.331,0.832 0.498,0.832c0.178,0 0.235,0.077 0.133,0.179c-0.099,0.099 0.08,0.772 0.402,1.515c0.396,0.916 0.579,2.036 0.579,3.552l0,2.213l-0.892,1.308c-1.044,1.531 -2.882,2.714 -4.665,3.003l-1.278,0.206l-0.176,0.773c-0.371,1.635 -0.526,2 -1.371,3.239c-0.812,1.189 -3.323,3.416 -4.159,3.688c-0.247,0.081 -0.157,0.443 0.297,1.186c0.639,1.047 0.828,2.674 0.469,4.041l-0.171,0.654l-4.398,0l1.078,-1.694c1.5,-2.357 1.299,-2.575 -2.594,-2.812c-3.648,-0.223 -4.695,-0.537 -10.074,-3.022c-1.664,-0.769 -4.076,-2.574 -4.314,-3.229c-0.098,-0.268 -0.381,-0.556 -0.649,-0.659c-0.676,-0.261 -3.568,1.253 -4.379,2.293l-0.673,0.862l0.297,0.995c0.165,0.553 0.807,1.665 1.442,2.497c0.634,0.832 1.144,1.798 1.144,2.169c0,0.424 0.446,0.995 1.218,1.56l1.219,0.892l-2.883,0.091c-2.912,0.091 -3.715,-0.127 -3.715,-1.013c0,-0.392 0.327,-0.523 1.07,-0.431c0.208,0.027 0.436,-0.079 0.546,-0.252c0.199,-0.312 0.032,-0.684 -1.352,-3.002c-0.444,-0.742 -0.889,-1.799 -1.003,-2.377c-0.385,-1.961 -0.481,-2.13 -1.163,-2.026l-0.624,0.094l-0.22,1.754c-0.205,1.634 -1.247,4.416 -1.981,5.289c-0.177,0.211 -0.602,0.758 -0.934,1.204l-0.609,0.817l-10.208,0c-7.934,0 -10.419,-0.09 -11.159,-0.405c-2.011,-0.858 -3.74,-3.042 -5.723,-7.232c-0.168,-0.357 -0.424,-0.586 -0.562,-0.505c-0.134,0.078 -0.125,0.386 0.019,0.653c0.329,0.611 1.214,5.468 1.214,6.657l0,0.832l-1.723,0l-0.164,-1.114c-0.089,-0.613 -0.246,-1.917 -0.347,-2.898c-0.357,-3.447 -1.372,-6.466 -2.401,-7.139c-1.055,-0.69 -1.296,-0.557 -0.986,0.542c0.246,0.869 0.707,3.269 1.441,7.489c0.144,0.832 0.349,1.845 0.466,2.303l0.208,0.817l-2.051,0l-0.511,-3.358c-1.164,-7.637 -1.536,-9.123 -2.282,-9.123c-0.977,0 -1.256,1.129 -1.282,5.201l-0.026,3.863l-1.129,2.288l0.684,1.129l-3.537,0l-1.902,-1.04c-1.04,-0.569 -2.103,-1.04 -2.347,-1.04c-0.853,0 -8.381,-2.274 -9.599,-2.9c-0.496,-0.255 -1.813,-0.688 -2.972,-0.978c-1.136,-0.284 -3.387,-0.862 -4.962,-1.275c-3.121,-0.816 -10.091,-1.769 -12.274,-1.677c-0.328,0.014 -2.585,0.079 -5.052,0.145c-7.548,0.203 -19.134,0.917 -19.435,1.197c-0.16,0.151 -0.356,-0.016 2.348,2.003c1.932,1.443 5.763,3.485 6.538,3.485c0.146,0 0.981,0.323 1.842,0.713c0.862,0.39 1.979,0.848 2.467,1.011l0.891,0.297l-2.08,0.029c-1.159,0.017 -2.606,-0.111 -3.269,-0.289c-2.763,-0.741 -8.827,-4.446 -11.055,-6.753c-0.455,-0.472 -1.396,-1.151 -2.08,-1.501c-0.683,-0.35 -1.626,-1.137 -2.083,-1.739c-1.196,-1.575 -4.583,-4.856 -5.316,-5.151c-0.531,-0.213 -2.14,-0.04 -4.19,0.452c-2.498,0.598 3.06,6.749 9.42,10.423c0.297,0.172 0.72,0.458 0.951,0.643c0.568,0.456 4.874,2.687 6.478,3.357l1.338,0.558l-2.928,0.015l-2.927,0.015l-1.53,-0.817c-0.832,-0.444 -2.141,-1.224 -2.868,-1.709c-0.734,-0.489 -2.095,-1.273 -3.016,-1.738l-1.679,-0.847l-2.63,0.936c-1.456,0.518 -3.658,1.268 -4.933,1.679c-1.456,0.47 -2.636,1.065 -3.21,1.62l-0.906,0.876l-2.942,0l-0.484,-0.743c-0.739,-1.136 -0.348,-1.682 1.049,-1.464l1.188,0.186l0.743,-0.787c0.403,-0.426 1.397,-1.026 2.17,-1.308l1.426,-0.52l0.023,-3.685c0.036,-5.496 0.054,-5.646 0.69,-5.646l0.535,0l0.057,1.397c0.154,3.804 0.406,6.797 0.587,6.983c0.205,0.212 2.744,-0.578 3.754,-1.168l0.595,-0.347l-0.714,-0.526c-0.98,-0.722 -0.98,-0.722 -1.964,-2.03c-1.407,-1.872 -1.867,-2.902 -2.069,-4.636l-0.186,-1.604l0.538,-0.654c1.059,-1.286 2.612,-1.872 4.959,-1.872c1.575,0 2.301,0.126 2.556,0.445c0.199,0.249 0.639,0.446 0.995,0.446c0.375,0 0.879,0.357 1.219,0.862c0.32,0.475 0.939,1.075 1.382,1.337l0.802,0.476l0.193,-1.055c0.107,-0.586 0.312,-2.006 0.461,-3.195c0.148,-1.189 0.353,-2.602 0.46,-3.18c0.15,-0.802 0.051,-1.189 -0.43,-1.694c-0.341,-0.356 -0.625,-0.734 -0.625,-0.832c0,-0.267 -2.2,-3.12 -2.407,-3.12c-0.098,0 -0.34,1.427 -0.539,3.18c-0.561,4.933 -0.912,5.892 -2.016,5.51c-0.416,-0.144 -0.539,-2.028 -0.149,-2.271c0.131,-0.082 0.271,-1.189 0.312,-2.467c0.041,-1.269 0.296,-3.372 0.565,-4.65l0.49,-2.333l-0.55,-1.085c-0.301,-0.594 -0.798,-1.575 -1.099,-2.169c-0.301,-0.594 -0.557,-1.333 -0.565,-1.635c-0.008,-0.302 -0.215,-0.817 -0.46,-1.144l-0.446,-0.594l-0.257,0.416c-0.612,0.994 -1.474,8.885 -1.609,14.74c-0.054,2.318 -0.247,2.823 -1.076,2.823c-1.056,0 -1.124,-0.981 -0.606,-8.767c0.349,-5.26 0.725,-8.521 1.04,-9.034c0.12,-0.194 0.26,-0.653 0.309,-1.01c0.05,-0.366 0.325,-1.263 0.624,-2.036l0.535,-1.382l-0.506,-1.545c-0.281,-0.862 -0.507,-1.821 -0.511,-2.169c-0.008,-0.743 -0.469,-1.546 -0.683,-1.189c-0.077,0.129 -0.238,0.713 -0.351,1.278c-0.113,0.565 -0.456,1.516 -0.751,2.08c-1.195,2.29 -2.963,9.896 -2.963,12.749l0,1.486l0.564,0.169c0.838,0.251 0.896,0.633 0.637,4.199c-0.267,3.683 -0.167,3.21 -1.475,6.924c-0.554,1.575 -1.019,3.452 -1.037,4.19c-0.042,1.724 -0.323,2.175 -1.097,1.76l-0.564,-0.304l0,-1.708c0,-0.951 0.112,-1.834 0.252,-1.991c0.14,-0.155 0.681,-1.887 1.204,-3.849l0.951,-3.566l-0.461,-1.099c-0.249,-0.596 -0.474,-1.754 -0.49,-2.526c-0.016,-0.773 -0.125,-1.767 -0.238,-2.17l-0.208,-0.743l-0.401,1.189c-0.22,0.654 -0.505,1.323 -0.631,1.486c-0.327,0.421 -0.895,3.447 -1.077,5.735c-0.095,1.189 -0.29,1.927 -0.536,2.022c-0.484,0.188 -0.029,1.455 0.832,2.317c0.357,0.357 0.506,0.847 0.446,1.471l-0.089,0.936l-0.966,0.015c-0.535,0.008 -0.979,0.141 -0.995,0.297c-0.017,0.156 0.141,2.422 0.349,5.037c0.514,6.449 0.511,6.812 -0.052,6.924c-0.714,0.143 -1.116,-1.188 -1.281,-4.249c-0.081,-1.486 -0.218,-3.071 -0.309,-3.566c-0.09,-0.489 -0.297,-3.017 -0.461,-5.602c-0.163,-2.585 -0.397,-4.864 -0.52,-5.052c-0.123,-0.189 -0.384,-2.006 -0.584,-4.056c-0.463,-4.755 -0.86,-7.7 -1.065,-7.905c-0.289,-0.289 -0.835,2.467 -1.278,6.449c-0.099,0.891 -0.251,1.723 -0.341,1.872c-0.091,0.148 -0.137,2.08 -0.105,4.309l0.06,4.041l0.624,0.476l0.624,0.475l-0.178,1.1c-0.133,0.819 0.002,1.456 0.527,2.496c1.05,2.08 2.244,5.922 2.224,7.162c-0.01,0.584 -0.254,1.813 -0.537,2.704l-0.52,1.635l-1.783,0.104c-1.873,0.109 -3.299,-0.137 -7.846,-1.354c-3.298,-0.883 -4.367,-1.429 -3.893,-1.99l0.327,-0.386l2.704,0.684c1.486,0.375 3.763,0.777 5.052,0.891l2.348,0.208l0.298,-0.802c0.424,-1.145 0.358,-3.002 -0.173,-4.904c-1.073,-3.833 -1.433,-4.803 -1.967,-5.283l-0.535,-0.482l-1.338,1.382c-0.736,0.761 -2.065,1.729 -2.956,2.155c-0.892,0.425 -1.774,0.96 -1.962,1.188c-0.195,0.238 -0.469,0.416 -0.639,0.416c-0.255,0 -2.199,0.825 -4.546,1.929c-0.5,0.235 -1.546,0.576 -2.378,0.776c-0.832,0.199 -1.813,0.52 -2.229,0.728c-0.406,0.203 -2.02,0.607 -3.566,0.891c-1.545,0.285 -3.253,0.7 -3.774,0.917c-1.696,0.708 -5.765,1.515 -10.193,2.022c-2.377,0.272 -5.374,0.62 -6.686,0.776c-0.365,0.043 -1.26,0.247 -2.464,0.517l-20.166,0c0.769,-0.024 1.522,-0.057 1.976,-0.087c8.232,-0.556 17.676,-2.598 18.098,-2.814c0.477,-0.244 3.269,-0.695 10.282,-1.661c2.193,-0.302 5.067,-0.973 7.563,-1.765c2.229,-0.707 5.022,-1.501 6.256,-1.779c2.377,-0.535 6.696,-1.969 7.994,-2.656c0.425,-0.225 1.575,-0.798 2.555,-1.275c4.488,-2.179 5.498,-2.899 5.498,-3.918c0,-0.297 0.211,-0.742 0.446,-0.938c0.706,-0.591 0.535,-0.807 -1.129,-1.422c-2.178,-0.806 -9.718,-1.377 -14.473,-1.098c-2.05,0.121 -4.513,0.265 -5.497,0.323c-0.981,0.057 -2.452,0.256 -3.269,0.442c-3.031,0.688 -5.67,1.155 -6.597,1.166c-0.532,0.006 -1.783,0.338 -2.734,0.724c-0.951,0.387 -2.332,0.809 -3.017,0.922c-0.698,0.115 -5.745,1.634 -6.107,1.634c-1.664,0 -11.662,3.27 -12.986,3.722c-4.534,1.548 -10.415,6.703 -7.905,10.48l-5.155,0Zm131.75,-1.908c0.922,0.199 1.877,0.508 2.095,0.678c0.228,0.177 0.788,0.447 1.293,0.624c0.681,0.238 -0.639,0.319 -5.572,0.341c-3.566,0.017 -6.463,-0.076 -6.463,-0.208c0,-0.448 1.961,-1.269 3.714,-1.555c2.17,-0.353 2.816,-0.337 4.933,0.12Zm59.613,-17.167c-1.189,0.264 -2.272,0.581 -2.437,0.713c-0.164,0.131 -0.802,0.337 -1.426,0.46c-0.614,0.122 -1.902,0.735 -2.823,1.345c-1.88,1.244 -2.864,2.801 -3.498,5.535l-0.366,1.575l0.386,1.486c0.431,1.664 1.253,3.118 2.408,4.262c0.891,0.883 1.307,1.002 1.307,0.374c0,-0.81 0.565,-0.79 2.14,0.074c2.021,1.108 8.872,2.834 10.49,2.643c1.664,-0.197 4.712,-2.294 5.633,-3.876c0.403,-0.693 1.018,-2.155 1.38,-3.284l0.654,-2.036l-0.374,-1.486c-0.471,-1.872 -1.296,-3.348 -2.825,-5.051l-1.199,-1.338l-1.545,-0.178c-0.862,-0.099 -1.979,-0.408 -2.526,-0.698c-0.532,-0.283 -1.456,-0.616 -2.021,-0.728c-0.565,-0.113 -1.081,-0.222 -1.129,-0.238c-0.05,-0.017 -1.04,0.181 -2.229,0.446Zm-28.736,15.126l0.151,-0.595c0.364,-1.426 1.12,-5.155 1.253,-6.181c0.176,-1.367 0.562,-1.381 1.651,-0.059l0.808,0.98l0,5.944l-1.04,1.248l-2.823,-1.337Zm-9.332,-14.621c0.083,1.188 0.271,2.734 0.424,3.477c0.598,2.912 0.917,6.027 0.729,7.132l-0.202,1.188l0.699,0.268c0.387,0.148 1.56,0.433 2.63,0.639c1.069,0.206 2.223,0.557 2.585,0.787l0.654,0.416l0.282,-0.535c0.156,-0.295 0.561,-2.169 0.906,-4.19c0.345,-2.02 0.757,-3.901 0.922,-4.205c0.16,-0.297 0.188,-0.597 0.059,-0.653c-0.131,-0.058 -0.547,-0.61 -0.929,-1.234c-0.8,-1.307 -1.911,-2.132 -2.548,-1.891l-0.446,0.168l0,10.668l-0.49,0.178c-0.267,0.098 -0.706,0.111 -0.966,0.03l-0.475,-0.148l-0.015,-3.596l-0.015,-3.596l-0.505,-0.371c-0.276,-0.203 -0.714,-0.966 -0.966,-1.679c-0.251,-0.714 -0.71,-1.734 -1.01,-2.244c-0.297,-0.505 -0.644,-1.36 -0.754,-1.857c-0.378,-1.706 -0.721,-0.951 -0.569,1.248Zm-5.468,-8.707l0.535,0c0.565,0 2.675,1.852 2.675,2.347c0,0.168 0.208,0.505 0.475,0.773c0.357,0.357 0.39,0.579 0.13,0.891c-0.477,0.576 -0.241,5.825 0.416,9.213c0.667,3.447 0.882,6.389 0.465,6.389c-0.177,0 -0.981,-0.211 -1.754,-0.461l-1.426,-0.46l-0.208,-2.437c-0.116,-1.354 -0.399,-3.626 -0.639,-5.111c-0.236,-1.464 -0.485,-4.592 -0.55,-6.91l-0.119,-4.234Zm76.106,4.911c-1.189,0.375 -2.681,1.114 -3.358,1.661c-1.248,1.01 -2.675,3.575 -2.675,4.809c0,1.235 3.388,4.832 5.795,6.153c2.823,1.55 7.954,2.304 10.104,1.486c1.094,-0.417 0.921,-0.74 -0.654,-1.226c-0.921,-0.284 -1.463,-0.629 -1.53,-0.974l-0.104,-0.535l1.144,0.193c0.62,0.105 1.872,0.268 2.734,0.356l1.59,0.164l0.713,-0.68c0.832,-0.794 0.889,-1.169 0.178,-1.182c-1.01,-0.02 -5.558,-1.991 -5.644,-2.447c-0.15,-0.792 0.355,-0.774 3.029,0.11c3.982,1.317 4.228,1.233 3.91,-1.329c-0.151,-1.218 -0.41,-1.797 -1.145,-2.555c-0.959,-0.991 -3.24,-2.162 -4.934,-2.532c-0.505,-0.111 -0.921,-0.363 -0.921,-0.559c0,-0.48 -1.456,-1.301 -2.853,-1.608c-1.444,-0.318 -2.675,-0.159 -5.379,0.695Zm-80.92,0.081c0,0.143 0.104,0.357 0.26,0.535c0.378,0.434 1.012,5.884 1.046,9.004l0.031,2.823l1.323,0.387c0.713,0.208 1.432,0.277 1.56,0.148c0.132,-0.132 0.101,-1.426 -0.07,-2.912c-0.503,-4.368 -0.836,-7.385 -0.86,-7.786c-0.011,-0.187 -0.288,-0.356 -0.586,-0.356c-0.306,0 -0.924,-0.476 -1.352,-1.041c-0.743,-0.98 -1.352,-1.341 -1.352,-0.802Zm-32.956,4.22l0.743,0l0.059,-3.952c0.033,-2.17 -0.071,-5.481 -0.23,-7.341c-0.315,-3.685 -0.153,-5.646 0.468,-5.646c0.704,0 0.728,-0.535 0.158,-3.477c-1.083,-5.587 -1.217,-6.495 -1.4,-9.45c-0.102,-1.634 -0.305,-3.353 -0.452,-3.818c-0.187,-0.595 -0.152,-0.954 0.119,-1.205c1.04,-0.962 4.086,-3.135 4.122,-2.941c0.135,0.714 0.164,1.605 0.203,6.27l0.043,5.141l0.728,0.728l0.729,0.728l0.317,3.21c0.516,5.23 1.255,10.391 1.73,12.095c0.359,1.288 1.362,1.248 1.487,-0.06c0.051,-0.535 -0.052,-1.217 -0.236,-1.56c-0.223,-0.416 -0.223,-0.609 0,-0.609c0.187,0 0.397,0.223 0.49,0.52c0.093,0.295 0.332,0.906 0.55,1.412c0.211,0.486 0.562,1.634 0.773,2.526c0.211,0.891 0.485,1.769 0.603,1.931c0.332,0.458 1.447,6.568 1.447,7.935c0,0.862 -0.248,1.602 -0.802,2.392c-0.625,0.891 -0.717,1.198 -0.416,1.39c0.739,0.47 -0.238,0.651 -4.933,0.914c-4.428,0.247 -11.86,1.079 -12.333,1.38c-0.203,0.129 -2.061,-1.411 -3.42,-2.837c-0.367,-0.384 -0.673,-1.07 -0.664,-1.486c0.028,-1.337 1.391,-7.756 1.647,-7.756c0.067,0 0.773,0.641 1.605,1.456l1.486,1.456l0,2.333c0,1.278 -0.139,2.924 -0.307,3.64c-0.321,1.367 -0.045,1.937 0.783,1.618c0.588,-0.227 1.52,-3.876 1.331,-5.213c-0.111,-0.786 0.273,-0.636 1.729,0.677c1.516,1.366 2.885,1.579 3.864,0.6c0.809,-0.809 0.505,-1.616 -0.535,-1.422c-0.416,0.078 -0.992,0.057 -1.248,-0.044c-0.916,-0.364 -7.723,-7.003 -8.185,-7.984c-0.253,-0.535 -0.612,-0.984 -0.79,-0.989c-0.828,-0.023 -4.054,-5.251 -4.065,-6.589c-0.003,-0.416 -0.219,-0.855 -0.467,-0.951c-0.258,-0.099 -0.65,-0.668 -0.891,-1.292c-0.242,-0.624 -0.621,-1.507 -0.862,-2.006c-0.76,-1.575 -1.649,-4.555 -1.649,-5.528c0,-0.505 -0.245,-1.27 -0.543,-1.693c-0.777,-1.109 -1.619,-5.201 -1.461,-7.103l0.131,-1.575l-1.099,-0.98l-0.58,0.609c-0.318,0.334 -0.666,0.951 -0.772,1.367c-0.122,0.475 -0.426,0.791 -0.818,0.847c-0.463,0.066 -0.685,0.386 -0.861,1.248c-0.128,0.624 -0.355,1.31 -0.491,1.486c-0.14,0.181 -0.681,1.515 -1.218,3.001c-0.536,1.486 -1.071,2.939 -1.204,3.269c-0.134,0.337 -0.321,0.981 -0.431,1.486c-0.105,0.488 -0.314,1.456 -0.46,2.139c-0.148,0.69 -0.327,2.526 -0.401,4.101c-0.074,1.575 -0.214,2.933 -0.312,3.032c-0.104,0.104 -0.179,0.029 -0.179,-0.179c0,-0.602 -1.074,-0.356 -1.426,0.327c-0.711,1.377 -1.57,4.309 -1.749,5.973c-0.099,0.922 -0.277,1.694 -0.391,1.694c-0.114,0 -0.294,-1.783 -0.401,-3.982c-0.107,-2.199 -0.346,-4.355 -0.535,-4.814c-0.371,-0.903 -0.739,-12.957 -0.432,-14.175c0.127,-0.504 0.625,-0.906 1.695,-1.367c0.832,-0.359 1.556,-0.614 1.605,-0.565c0.049,0.049 -0.234,1.367 -0.624,2.912c-0.39,1.546 -0.915,4.034 -1.159,5.498c-0.248,1.486 -0.57,3.375 -0.726,4.25c-0.384,2.169 -0.127,3.38 0.696,3.266c0.458,-0.063 0.651,-0.324 0.723,-0.978c0.108,-0.969 1.318,-6.33 2.649,-11.738c0.592,-2.407 1.099,-3.779 1.68,-4.547c0.45,-0.594 0.955,-1.1 1.1,-1.1c0.15,0 0.267,-0.208 0.267,-0.475c0,-0.263 0.273,-0.862 0.609,-1.337l0.609,-0.862l1.13,0c1.218,0 1.991,-0.606 1.705,-1.337c-0.246,-0.63 -0.041,-0.577 1.742,0.448c1.755,1.009 4.368,1.895 6.478,2.196l1.456,0.208l-0.163,0.654c-0.089,0.357 -0.258,2.066 -0.372,3.759c-0.113,1.694 -0.302,3.45 -0.416,3.864l-0.208,0.757l-0.176,-0.594c-0.328,-1.099 -0.929,-4.153 -0.866,-4.398c0.145,-0.565 -0.65,-3.788 -1.008,-4.086c-0.806,-0.671 -1.44,-0.193 -1.595,1.203c-0.165,1.486 0.165,4.867 0.566,5.795c0.142,0.329 0.719,1.991 1.289,3.715c1.564,4.725 1.831,5.429 3.304,8.707c0.428,0.951 0.775,1.797 0.775,1.887c0,0.093 0.322,0.55 0.743,1.055c0.421,0.505 0.743,1.059 0.743,1.278c0,0.213 0.432,0.966 0.965,1.679c0.533,0.713 1.729,2.452 2.667,3.878c1.817,2.763 3.259,4.101 4.421,4.101Zm10.801,-38.246c0.496,2.199 0.641,4.83 0.368,6.686c-0.162,1.1 -0.28,2.457 -0.264,3.031c0.047,1.724 0.922,8.48 1.278,9.867c0.183,0.713 0.327,1.474 0.326,1.723c-0.01,3.12 -0.294,8.901 -0.45,9.153c-0.113,0.182 0.049,0.966 0.363,1.768c0.308,0.787 0.666,2.11 0.787,2.912c0.122,0.803 0.365,1.647 0.535,1.858c0.172,0.212 0.333,1.486 0.358,2.823c0.046,2.377 -0.451,4.122 -1.324,4.652c-0.147,0.089 2.482,0.162 5.869,0.162c3.388,0 6.683,0.1 7.355,0.223l1.219,0.223l0.342,-0.758c0.216,-0.479 0.346,-2.689 0.353,-6.018c0.013,-5.705 0.394,-8.155 1.296,-8.329c1.008,-0.194 1.107,0.365 0.652,3.693c-0.246,1.791 -0.49,5.067 -0.548,7.326l-0.104,4.086l0.46,0.134c0.249,0.072 0.996,0.229 1.62,0.341l1.159,0.208l-0.193,-4.368c-0.107,-2.407 -0.34,-4.996 -0.52,-5.765c-0.181,-0.771 -0.347,-2.675 -0.371,-4.25c-0.051,-3.269 -0.611,-4.636 -1.769,-4.317c-2.437,0.672 -4.299,0.44 -5.182,-0.646c-0.436,-0.534 -0.494,-2.914 -0.078,-3.173c0.162,-0.1 0.297,-0.482 0.297,-0.838c0,-0.371 0.257,-1.04 0.592,-1.546c1.135,-1.71 0.756,-3.09 -1.503,-5.468c-1.186,-1.248 -1.584,-1.512 -1.791,-1.188c-0.365,0.571 -0.344,1.04 0.17,3.714c0.633,3.299 0.577,6.483 -0.158,8.886c-0.336,1.099 -0.708,2.543 -0.831,3.224c-0.172,0.951 -0.342,1.213 -0.743,1.144l-0.52,-0.089l0.163,4.993c0.09,2.734 0.245,5.564 0.342,6.255c0.143,1.01 0.089,1.263 -0.267,1.263c-0.916,0 -1.262,-0.981 -1.506,-4.279c-0.582,-7.875 -0.469,-9.679 0.584,-9.273c0.272,0.105 0.44,-0.356 0.565,-1.544c0.097,-0.922 0.271,-2.033 0.382,-2.437c0.477,-1.743 -0.178,-11.471 -0.983,-14.591c-0.375,-1.456 -2.792,-6.514 -3.464,-7.251c-0.139,-0.152 -0.244,0.386 -0.244,1.248c0,1.694 -0.638,3.485 -1.337,3.755c-0.599,0.231 -0.874,-0.486 -0.584,-1.526c0.346,-1.248 0.348,-4.852 0.003,-5.706c-0.325,-0.802 -2.227,-2.913 -2.658,-2.949c-0.146,-0.013 -0.167,0.423 -0.046,0.958Zm63.447,13.031c-0.187,0.35 -0.402,2.065 -0.475,3.789l-0.134,3.15l0.585,1.783c2.104,6.419 4.351,9.717 7.825,11.485c0.951,0.484 1.724,0.984 1.724,1.115c0,0.377 1.456,0.921 2.466,0.921c1.019,0 4.666,1.718 5.706,2.688c0.356,0.332 0.739,0.587 0.891,0.595c0.492,0.025 3.217,3.463 4.113,5.187c0.464,0.891 0.972,1.634 1.118,1.634c0.421,0 0.326,-0.468 -0.179,-0.887c-0.851,-0.705 -0.446,-0.912 1.427,-0.727l1.902,0.188l1.976,-0.936c1.099,-0.521 1.976,-1.062 1.976,-1.219c0,-0.16 -0.565,-0.205 -1.308,-0.103c-1.634,0.223 -3.273,-0.059 -3.893,-0.671c-1.033,-1.02 -0.178,-1.125 4.072,-0.502l1.099,0.162l-0.148,-0.58c-0.083,-0.322 0.067,-1.411 0.338,-2.451c0.536,-2.065 1.474,-3.366 3.971,-5.501l1.456,-1.245l2.704,-0.372c2.14,-0.294 3.263,-0.294 5.379,-0.005c2.555,0.35 5.052,0.187 7.489,-0.49c0.534,-0.148 2.197,-2.701 1.931,-2.967c-0.082,-0.082 -0.728,-0.002 -1.441,0.179c-0.714,0.18 -2.957,0.287 -5.007,0.237l-3.715,-0.089l0,-0.446c0,-0.348 0.683,-0.514 3.12,-0.758c3.358,-0.337 6.361,-1.102 7.192,-1.832c0.31,-0.273 0.535,-0.901 0.535,-1.496l0,-1.025l-0.52,0.223c-0.287,0.123 -2.452,0.316 -4.829,0.431c-2.378,0.115 -4.443,0.243 -4.607,0.287c-0.594,0.159 -1.04,0.01 -1.04,-0.347c0,-0.762 1.367,-1.2 4.458,-1.429c2.199,-0.162 3.72,-0.455 4.933,-0.948l1.753,-0.713l-0.044,-0.981c-0.059,-1.307 -0.367,-1.565 -1.442,-1.204c-5.029,1.691 -5.676,1.82 -10.817,2.149c-4.071,0.261 -5.881,0.249 -8.335,-0.053c-1.724,-0.213 -4.54,-0.44 -6.256,-0.506c-1.723,-0.065 -3.785,-0.265 -4.606,-0.445c-0.82,-0.181 -3.15,-0.567 -5.2,-0.862c-3.542,-0.509 -5.676,-0.941 -9.659,-1.954c-0.98,-0.249 -2.317,-0.56 -2.971,-0.691c-0.654,-0.131 -1.991,-0.719 -2.972,-1.307c-0.981,-0.589 -1.877,-1.077 -1.991,-1.085c-0.116,-0.008 -0.359,0.267 -0.55,0.624Zm-48.567,16.597c0.197,0.624 -0.041,3.741 -0.319,4.19c-0.245,0.396 -0.951,4.666 -1.183,7.162c-0.221,2.377 -0.731,3.329 -1.416,2.645c-0.609,-0.61 0.494,-9.688 1.637,-13.462c0.369,-1.219 0.985,-1.476 1.281,-0.535Zm-20.733,-5.646c0.344,0 0.728,0.327 0.944,0.802c0.758,1.664 1.159,16.787 0.475,17.89c-0.332,0.537 -1.036,0.327 -1.194,-0.357c-0.083,-0.361 -0.204,-4.249 -0.27,-8.677c-0.065,-4.428 -0.212,-8.39 -0.327,-8.841l-0.208,-0.817l0.58,0Zm126.729,1.842c-0.2,0.2 -0.357,1.174 -0.357,2.214l0,1.857l-0.891,0.669c-0.506,0.379 -0.892,0.785 -0.892,0.936c0,0.4 -1.456,2.066 -2.288,2.618l-0.713,0.473l1.069,0.633c2.289,1.355 4.484,3.559 4.757,4.775c0.113,0.505 0.381,0.921 0.592,0.921c0.211,0 1.044,-0.772 1.828,-1.693l1.441,-1.694l-0.015,-3.433l-0.014,-3.432l-0.832,-1.634c-0.861,-1.694 -2.437,-3.566 -3.002,-3.566c-0.19,0 -0.475,0.148 -0.683,0.356Zm-171.231,-12.541l0.193,-1.262c0.105,-0.684 0.207,-1.277 0.223,-1.293c0.017,-0.017 0.877,-0.117 1.917,-0.223l1.887,-0.193l-0.227,0.951c-0.296,1.239 -0.299,2.853 -0.007,5.289l0.234,1.962l-0.475,0.386c-0.269,0.219 -0.476,0.728 -0.476,1.174c0,0.435 -0.318,2.065 -0.711,3.64c-1.297,5.201 -1.645,11.291 -0.902,15.78c0.113,0.684 0.07,1.129 -0.11,1.129c-0.163,0 -0.385,-0.862 -0.491,-1.902l-0.193,-1.902l-0.862,-0.356c-1.984,-0.82 -2.152,-1.605 -1.535,-7.162c0.339,-3.049 0.619,-4.547 1.692,-9.034c0.277,-1.159 0.609,-2.738 0.75,-3.566c0.141,-0.832 0.337,-1.911 0.445,-2.452l0.194,-0.966l-1.546,0Zm103.346,7.043c1.099,1.565 2.667,5.023 3.207,7.073c0.37,1.405 0.553,3.195 0.563,5.513l0.015,3.432l-0.52,0.802c-0.713,1.1 -1.94,1.1 -2.908,0c-0.406,-0.461 -1.162,-1.857 -1.699,-3.135l-0.965,-2.303l-0.149,-3.194c-0.081,-1.754 -0.148,-3.423 -0.148,-3.7c0,-0.289 -0.268,-0.652 -0.625,-0.847l-0.624,-0.342l-0.579,0.624c-0.331,0.357 -0.936,0.624 -1.412,0.624c-0.861,0 -2.39,-0.997 -2.05,-1.337c0.098,-0.098 1.411,-0.432 2.927,-0.743c1.932,-0.397 2.912,-0.476 3.299,-0.267c0.297,0.16 0.556,0.324 0.564,0.356c0.009,0.033 0.121,2.051 0.253,4.517l0.238,4.458l0.817,1.723c1.366,2.882 2.043,2.081 1.807,-2.139c-0.205,-3.656 -0.711,-5.857 -1.953,-8.499c-0.614,-1.308 -1.196,-2.619 -1.292,-2.913c-0.272,-0.831 0.587,-0.624 1.234,0.297Zm-114.289,-2.347c-0.522,1.333 -1.025,4.22 -1.227,7.043c-0.126,1.753 -0.468,3.452 -0.994,4.933c-0.444,1.248 -0.803,2.577 -0.803,2.972l0,0.713l3.061,0.092c3.239,0.098 3.963,0.164 4.666,0.425c0.249,0.093 0.936,0.251 1.56,0.359l1.114,0.194l0,-2.601c0,-1.423 0.155,-3.803 0.342,-5.26l0.342,-2.659l-0.773,-0.635c-0.832,-0.683 -2.882,-3.318 -2.882,-3.704c0,-0.13 -0.743,-0.939 -1.635,-1.78c-1.783,-1.682 -2.144,-1.694 -2.771,-0.092Zm48.105,-12.853c0.155,0.417 0.282,1.56 0.282,2.541c0,2.557 0.791,7.459 1.663,10.312c0.137,0.446 0.049,0.859 -0.252,1.188c-0.733,0.802 -0.911,4.22 -0.521,9.985c0.197,2.913 0.265,5.384 0.15,5.498c-0.209,0.209 -0.424,-0.059 -1.782,-2.229c-2.066,-3.298 -2.147,-3.499 -2.323,-5.765c-0.095,-1.218 -0.269,-3.077 -0.383,-4.101c-0.236,-2.11 0.252,-4.076 1.13,-4.551c0.775,-0.42 0.654,-1.102 -0.297,-1.675l-0.862,-0.52l-0.119,-10.519l0.535,-0.268c0.292,-0.146 0.981,-0.355 1.516,-0.46l0.98,-0.194l0.283,0.758Zm-80.697,-11.07c0.255,9.332 0.683,19.057 0.864,19.673c0.097,0.329 0.335,1.293 0.532,2.155c0.197,0.862 0.49,1.519 0.654,1.47c0.33,-0.101 0.488,-0.891 1.078,-5.408c0.404,-3.09 0.722,-4.071 1.693,-5.23c1.102,-1.315 1.817,-1.129 3.196,0.832c1.984,2.821 2.752,4.814 3.277,8.499c0.262,1.843 0.6,4.138 0.756,5.141c0.157,1.011 0.282,2.3 0.282,2.913c0,1.54 0.824,1.456 1.748,-0.179c1.21,-2.139 2.974,-5.806 3.16,-6.567c0.094,-0.386 0.591,-1.219 1.08,-1.813l0.907,-1.1l0.743,0.688c0.667,0.616 1.239,1.541 2.886,4.662c0.739,1.4 1.942,7.429 2.201,11.025l0.202,2.823l0.966,0.089l0.966,0.089l0.015,-0.683c0.008,-0.387 0.202,-0.936 0.445,-1.263c0.243,-0.327 0.431,-1.041 0.431,-1.635c0,-0.58 0.188,-1.59 0.416,-2.244c0.228,-0.649 0.421,-2.199 0.425,-3.417c0.01,-2.377 0.926,-7.157 1.636,-8.529c0.569,-1.099 1.829,-2.156 2.813,-2.36l0.802,-0.166l1.635,1.739c0.894,0.951 2.2,2.405 2.882,3.209c0.681,0.803 1.33,1.39 1.427,1.293c0.191,-0.191 1.325,-7.043 1.333,-8.054l0.004,-0.534l-2.14,0.004c-8.439,0.016 -13.825,-0.228 -15.066,-0.683c-0.713,-0.262 -1.767,-0.48 -2.318,-0.48c-0.653,0 -1.709,-0.42 -2.987,-1.189c-1.099,-0.661 -2.134,-1.189 -2.332,-1.189c-0.208,0 -0.4,-0.099 -0.461,-0.238c-0.057,-0.131 -1.144,-0.75 -2.422,-1.381c-1.397,-0.69 -2.637,-1.552 -3.12,-2.17c-0.449,-0.573 -1.412,-1.634 -2.185,-2.407c-0.753,-0.753 -1.854,-2.125 -2.421,-3.016c-0.568,-0.892 -1.392,-2.04 -1.813,-2.526c-0.424,-0.489 -1.477,-2.333 -2.333,-4.086c-0.856,-1.753 -1.661,-3.195 -1.783,-3.195c-0.123,0 -0.156,2.437 -0.074,5.438Zm206.98,38.395c0,0.285 0.267,0.446 0.743,0.446c0.475,0 0.743,-0.161 0.743,-0.446c0,-0.285 -0.268,-0.446 -0.743,-0.446c-0.476,0 -0.743,0.161 -0.743,0.446Zm-108.664,-22.496c0.168,0.281 0.62,2.556 1.103,5.557c0.449,2.794 0.802,16.602 0.43,16.862c-0.997,0.701 -1.379,-0.517 -1.503,-4.797c-0.183,-6.359 -0.43,-10.504 -0.719,-12.065c-0.149,-0.812 -0.314,-2.422 -0.363,-3.551l-0.089,-2.065l0.49,-0.104c0.268,-0.057 0.564,0.017 0.651,0.163Zm-11.512,-17.474l0.594,0c0.319,0.001 0.877,0.2 1.203,0.431c0.335,0.237 1.367,0.713 2.289,1.055c0.921,0.343 1.679,0.739 1.679,0.877c0,0.144 0.267,0.322 0.624,0.415c1.063,0.277 0.475,0.948 -0.743,0.849l-1.1,-0.09l0.208,0.832c0.112,0.446 0.353,1.018 0.52,1.233c0.194,0.25 0.341,3.002 0.387,7.281c0.043,4.041 0.278,8.596 0.568,11.04c0.642,5.408 0.895,10.39 0.516,10.163c-0.16,-0.097 -0.542,-0.832 -0.832,-1.605c-0.29,-0.772 -0.835,-1.767 -1.19,-2.169c-0.689,-0.781 -0.673,-0.684 -1.459,-8.885c-0.291,-3.032 -0.499,-4.068 -0.872,-4.339l-0.491,-0.357l-0.168,-5.913c-0.242,-8.44 -0.404,-9.786 -1.258,-10.449l-0.475,-0.369Zm-13.254,12.779c0,0.17 0.133,0.297 0.312,0.297c0.178,0 0.235,0.121 0.133,0.282c-0.096,0.154 -0.232,1.204 -0.297,2.303c-0.065,1.106 -0.32,3.67 -0.564,5.662l-0.446,3.64l0.386,1.263c0.209,0.683 0.629,1.808 0.915,2.452c0.938,2.109 2.016,4.334 2.059,4.249c0.05,-0.097 -0.412,-17.444 -0.504,-18.93c-0.043,-0.683 -0.255,-1.084 -0.657,-1.239c-0.832,-0.32 -1.337,-0.312 -1.337,0.021Zm131.944,2.377c3.35,1.313 5.943,2.323 5.943,3.447c0,0.951 -0.535,0.892 -2.971,-0.326c-1.159,-0.58 -2.265,-1.041 -2.497,-1.041c-0.237,0 -0.46,-0.095 -0.52,-0.222c-0.057,-0.123 -1.233,-0.589 -2.63,-1.041c-1.899,-0.614 -3.417,-0.864 -6.121,-1.006c-3.715,-0.196 -4.874,-0.051 -4.874,0.605c0,0.889 0.921,1.171 3.952,1.21c3.864,0.049 6.662,0.714 10.223,2.426c1.545,0.743 3.382,1.518 4.056,1.713l1.234,0.357l-0.892,0.464c-1.397,0.728 -4.406,1.325 -4.547,0.903c-0.23,-0.692 -2.05,-1.478 -4.517,-1.952c-1.396,-0.268 -3.575,-0.686 -4.873,-0.934c-3.079,-0.589 -11.352,-0.586 -15.394,0.006c-4.398,0.645 -10.453,1.161 -12.897,1.098c-3.031,-0.077 -9.331,-2.245 -9.331,-3.211c0,-1.069 4.041,-3.386 8.321,-4.77l2.526,-0.816l4.309,-0.226c7.667,-0.401 15.559,-0.51 17.681,-0.244c0.82,0.103 2.034,0.749 3.121,0.886c4.01,1.804 7.223,1.701 10.698,2.674Zm-106.224,-24.368c0.419,0 1.382,0.312 2.154,0.699c0.783,0.391 2.051,0.868 2.883,1.084c0.832,0.217 1.865,0.576 2.348,0.817l0.861,0.431l-0.193,1.59c-0.123,1.011 -0.074,1.662 0.134,1.788c0.39,0.236 1.06,-0.644 1.303,-1.714c0.102,-0.445 0.341,-0.931 0.539,-1.094c0.389,-0.317 2.794,-0.086 6.36,0.61l1.872,0.366l0.282,0.906c0.156,0.499 0.363,1.441 0.461,2.095c0.098,0.654 0.332,1.496 0.52,1.872c0.253,0.505 0.253,0.827 0,1.233c-0.258,0.417 -0.237,0.684 0.089,1.1l0.431,0.55l0.439,-0.565c0.57,-0.732 0.578,-2.139 0.028,-4.755c-0.243,-1.159 -0.365,-2.152 -0.274,-2.243c0.09,-0.09 1.189,-0.164 2.437,-0.164c1.248,0 2.582,-0.113 2.957,-0.252l0.683,-0.253l0.163,0.594c0.17,0.625 0.889,1.052 1.323,0.788c0.147,-0.09 0.201,-0.773 0.119,-1.516l-0.148,-1.352l1.812,-1.76c1.967,-1.91 2.764,-2.405 5.26,-3.269c1.991,-0.688 3.584,-0.735 3.816,-0.112c0.098,0.262 0.523,0.446 1.028,0.446c0.565,0 0.862,-0.154 0.862,-0.446c0,-1.09 2.912,0.056 4.844,1.907c0.984,0.942 2.177,2.67 3.403,4.928l0.371,0.684l-0.613,1.991c-0.977,3.177 -3.161,5.083 -7.143,6.235c-1.159,0.335 -1.781,0.697 -2.049,1.194c-0.49,0.908 -0.239,1.222 1.157,1.45c1.1,0.179 2.407,1.377 2.407,2.205c0,0.159 0.208,0.464 0.446,0.654c0.242,0.193 0.446,0.683 0.446,1.07c0,0.386 0.123,0.713 0.267,0.713c0.232,0 0.513,1.04 0.804,2.972c0.202,1.337 -0.178,2.519 -1.192,3.714l-1.008,1.189l-1.219,-1.112c-1.189,-1.086 -2.526,-1.68 -2.912,-1.295c-0.312,0.312 0.327,1.151 1.426,1.874c2.11,1.387 2.125,1.662 0.149,2.718l-1.308,0.698l-0.668,-0.55c-0.365,-0.3 -1.007,-0.921 -1.412,-1.367c-0.405,-0.446 -0.918,-0.817 -1.129,-0.817c-0.691,0 -0.476,1.203 0.327,1.828c0.416,0.324 0.743,0.723 0.743,0.906c0,0.428 -2.259,0.05 -3.061,-0.513c-0.34,-0.239 -0.921,-0.438 -1.278,-0.438c-0.683,0 -4.874,-2.019 -4.874,-2.348c0,-0.112 -0.477,-0.743 -1.033,-1.367c-1.14,-1.278 -3.828,-6.507 -3.635,-7.073c0.066,-0.193 0.449,-0.356 0.835,-0.356c0.548,0 0.735,-0.179 0.806,-0.773c0.139,-1.151 -0.776,-1.766 -2.857,-1.919c-0.98,-0.072 -2.558,-0.332 -3.506,-0.577c-0.951,-0.246 -2.217,-0.446 -2.823,-0.446c-1.665,0 -5.877,-0.834 -7.4,-1.466c-0.74,-0.307 -2.199,-0.714 -3.269,-0.911c-1.073,-0.198 -2.882,-0.74 -4.071,-1.219c-1.189,-0.478 -2.404,-0.861 -2.734,-0.861c-0.327,0 -0.675,-0.134 -0.773,-0.298c-0.096,-0.16 -0.505,-0.297 -0.891,-0.297c-0.387,0 -0.798,-0.136 -0.898,-0.297c-0.237,-0.383 -3.798,-2.178 -5.254,-2.649c-1.694,-0.548 -4.398,-2.116 -4.398,-2.552c0,-0.21 0.372,-0.629 0.817,-0.921c0.446,-0.292 1.068,-0.845 1.367,-1.218c0.311,-0.386 0.7,-0.839 0.895,-1.04c0.617,-0.639 1.379,-2.526 1.379,-3.418c0,-0.445 0.083,-1.142 0.178,-1.5c0.095,-0.357 0.373,-0.669 0.594,-0.669c0.329,0 0.416,0.654 0.416,3.12c0,2.467 0.088,3.121 0.416,3.121c0.565,0 1.19,-0.766 0.946,-1.159c-0.112,-0.181 -0.037,-1.07 0.169,-1.991l0.371,-1.665l1.338,0.208c0.743,0.116 1.819,0.4 2.422,0.639l1.084,0.431l-0.147,2.021c-0.155,2.14 0.2,3.299 1.009,3.299c0.355,0 0.457,-0.283 0.401,-1.115c-0.041,-0.624 -0.054,-1.539 -0.029,-2.08l0.044,-0.966l0.758,0Zm-73.268,-39.127c-2.199,0.18 -4.465,0.631 -5.26,1.047c-0.297,0.156 -1.723,0.855 -3.209,1.573c-1.486,0.718 -2.846,1.458 -3.061,1.664c-0.208,0.2 -0.551,0.371 -0.743,0.371c-0.2,0 -1.01,0.589 -1.842,1.338c-0.829,0.745 -2.289,2.033 -3.299,2.909c-3.412,2.96 -5.651,6.63 -6.659,10.909c-0.209,0.892 -0.489,1.77 -0.616,1.932c-0.433,0.554 -1.131,4.754 -1.31,7.875c-0.308,5.378 1.087,12.229 2.88,14.145c0.501,0.535 0.803,1.094 0.69,1.278c-0.231,0.375 0.522,2.169 1.373,3.269c0.298,0.386 0.551,0.938 0.551,1.203c0,0.27 0.608,1.219 1.352,2.11c0.745,0.892 1.694,2.021 2.112,2.511c1.038,1.219 2.877,3.132 3.876,4.034c0.922,0.83 3.514,2.653 3.775,2.653c0.097,0 1.337,0.546 2.734,1.203c1.396,0.658 2.71,1.15 2.897,1.085c0.189,-0.066 -0.401,-0.596 -1.322,-1.186c-1.694,-1.087 -2.809,-2.375 -2.496,-2.885c0.219,-0.357 1.039,-0.38 1.039,-0.03c0,0.485 2.972,2.416 5.439,3.532l2.436,1.104l3.492,0.104c2.17,0.065 3.492,-0.009 3.492,-0.193c0,-0.163 -0.713,-0.701 -1.575,-1.189c-0.862,-0.488 -1.75,-1.107 -1.961,-1.367c-0.218,-0.267 -0.53,-0.478 -0.714,-0.481c-0.329,-0.005 -3.919,-3.263 -4.611,-4.185c-0.357,-0.475 -0.174,-1.456 0.273,-1.456c0.131,0 1.273,1.04 2.546,2.318c2.16,2.17 5.774,4.814 6.577,4.814c0.2,0 0.891,0.34 1.575,0.773c0.736,0.467 1.842,0.836 2.793,0.932c1.813,0.183 4.309,-0.133 4.309,-0.546c0,-0.144 -0.653,-0.598 -1.426,-0.99c-1.694,-0.858 -5.508,-3.397 -5.657,-3.764c-0.058,-0.144 -0.287,-0.268 -0.495,-0.268c-0.451,0 -1.931,-1.753 -1.931,-2.288c0,-0.208 0.178,-0.386 0.386,-0.386c0.467,0 1.745,0.861 2.071,1.396c0.471,0.77 5.477,3.831 8.241,5.038l2.823,1.233l1.486,-0.267c2.377,-0.426 2.823,-0.562 2.823,-0.863c0,-0.178 -0.119,-0.297 -0.297,-0.297c-0.386,0 -5.135,-2.135 -5.354,-2.407c-0.08,-0.099 -0.738,-0.526 -1.481,-0.96c-1.991,-1.164 -4.458,-3.56 -4.458,-4.33c0,-0.979 0.697,-0.772 1.903,0.565c0.617,0.684 1.464,1.44 1.931,1.724c0.458,0.278 1.486,0.892 2.288,1.367c0.803,0.475 1.816,1.108 2.259,1.411c0.445,0.306 0.974,0.55 1.188,0.55c0.214,0 0.773,0.2 1.248,0.447c1.308,0.677 3.839,0.906 4.271,0.385c0.57,-0.686 -0.14,-2.247 -1.12,-2.465c-1.207,-0.267 -3.834,-2.044 -5.558,-3.758c-1.664,-1.655 -2.125,-2.498 -1.634,-2.989c0.202,-0.203 0.945,0.356 2.328,1.753c2.917,2.945 5.904,4.18 10.599,4.383c2.318,0.1 2.689,-0.364 0.951,-1.186c-0.579,-0.275 -1.468,-1.013 -2.006,-1.666c-0.541,-0.658 -1.526,-1.828 -2.238,-2.66c-2.291,-2.675 -2.78,-5.186 -1.407,-7.221c1.173,-1.737 1.193,-1.716 -2.611,-2.735c-2.882,-0.773 -6.354,-2.583 -7.578,-3.952c-1.024,-1.144 -3.447,-4.784 -4.076,-6.122c-0.406,-0.862 -0.593,-2.109 -0.683,-4.546c-0.138,-3.745 0.158,-5.291 1.464,-7.638c2.845,-5.111 9.469,-6.922 12.954,-3.541c0.475,0.461 2.47,1.119 2.704,0.892c0.1,-0.098 -0.131,-0.59 -0.53,-1.125c-1.415,-1.902 -3.274,-4.836 -3.274,-5.17c0,-0.197 -0.505,-0.735 -1.129,-1.201c-1.381,-1.033 -3.002,-2.478 -4.963,-4.426c-0.832,-0.827 -1.643,-1.44 -1.842,-1.394c-0.37,0.084 -2.152,-0.706 -2.463,-1.092c-0.486,-0.604 -2.768,-1.813 -3.421,-1.813c-0.416,0 -0.743,-0.111 -0.743,-0.253c0,-0.137 -0.847,-0.34 -1.858,-0.445c-1.01,-0.105 -2.602,-0.336 -3.491,-0.506c-0.892,-0.17 -2.31,-0.413 -3.121,-0.534l-1.485,-0.223l-0.595,0.505c-0.365,0.311 -1.337,0.566 -2.526,0.664Zm45.467,45.033c-2.751,2.316 -8.558,2.413 -12.332,0.208c-0.713,-0.417 -1.375,-0.765 -1.456,-0.765c-0.081,0 -0.425,0.297 -0.757,0.654c-0.636,0.684 -0.883,3.209 -0.313,3.209c0.143,0 0.358,0.313 0.46,0.669c0.11,0.379 0.535,1.004 0.981,1.441c0.428,0.421 1.378,1.471 2.08,2.303c0.703,0.833 1.429,1.531 1.59,1.531c0.161,0 0.728,0.308 1.233,0.669c0.525,0.374 1.59,0.912 2.422,1.224c4.339,1.621 4.44,1.644 7.43,1.658l2.971,0.015l2.437,-0.851c4.606,-1.609 7.519,-4.237 7.519,-6.786c0,-1.13 -1.535,-3.281 -2.615,-3.667c-0.446,-0.159 -1.067,-0.424 -1.397,-0.598c-0.327,-0.171 -1.739,-0.272 -3.135,-0.223l-2.541,0.09l-1.471,-0.937c-0.802,-0.51 -1.532,-0.949 -1.605,-0.965c-0.072,-0.016 -0.758,0.495 -1.501,1.121Zm-11.351,-25.991c-3.886,1.767 -5.617,5.197 -6.327,12.537c-0.417,4.309 1.417,8.587 4.662,10.876c3.537,2.496 6.056,3.162 9.332,2.47c2.912,-0.615 4.317,-2.223 2.704,-3.094c-1.032,-0.558 -2.699,-3.239 -3.141,-5.051c-0.662,-2.717 -0.742,-6.39 -0.197,-9.124c0.266,-1.337 0.492,-3.02 0.5,-3.729c0.008,-0.743 0.217,-1.52 0.49,-1.828l0.476,-0.535l-0.862,-0.846c-1.277,-1.253 -3.626,-2.393 -4.933,-2.393c-0.618,0 -1.843,0.325 -2.704,0.717Zm88.091,5.286c2.054,2.14 3.457,4.26 4.211,6.359c0.227,0.634 0.893,2.17 1.468,3.388c1.334,2.823 1.988,5.317 1.948,7.43c-0.046,2.436 -0.3,3.12 -1.158,3.12c-0.446,0 -1.324,-2.125 -1.308,-2.63c0.016,-0.508 -0.133,-1.412 -0.327,-1.976c-0.198,-0.578 -0.455,-1.635 -0.579,-2.378c-0.124,-0.743 -0.316,-1.404 -0.431,-1.489c-0.265,-0.194 -1.057,-1.958 -1.492,-3.325c-0.191,-0.6 -0.749,-1.917 -1.227,-2.897c-0.479,-0.981 -0.877,-1.92 -0.877,-2.066c0,-0.16 -0.095,-0.309 -0.238,-0.371c-0.129,-0.057 -0.822,-0.906 -1.515,-1.857c-0.693,-0.951 -1.516,-1.815 -1.798,-1.887c-0.368,-0.095 -0.48,-0.342 -0.381,-0.847c0.27,-1.377 1.451,-0.922 3.704,1.426Zm-75.135,-2.891l-1.456,0.424l-0.936,1.724c-0.68,1.252 -1.107,2.675 -1.562,5.201c-0.771,4.279 -0.771,4.279 0.004,7.132c0.63,2.318 0.941,2.794 2.732,4.194c0.446,0.348 1.205,0.96 1.634,1.318c0.44,0.366 1.367,0.891 2.051,1.159l1.248,0.491l2.11,-0.32c3.388,-0.513 6.042,-2.586 7.239,-5.654c0.649,-1.664 0.675,-6.091 0.043,-7.31c-0.247,-0.476 -0.367,-1.115 -0.269,-1.426c0.206,-0.654 -1.048,-3.21 -1.575,-3.21c-0.19,0 -0.483,0.193 -0.698,0.461c-0.208,0.258 -0.699,0.424 -1.115,0.378c-0.735,-0.082 -0.933,-0.423 -1.347,-2.325c-0.167,-0.77 -1.773,-1.891 -3.408,-2.38c-1.276,-0.381 -3.09,-0.326 -4.695,0.143Zm36.279,17.393c0.297,1.35 0.897,1.783 2.472,1.783c0.762,0 2.14,0.203 3.032,0.446c0.891,0.243 1.675,0.447 1.723,0.449c0.247,0.009 -0.356,-2.262 -0.654,-2.46c-0.179,-0.119 -0.891,-0.218 -1.575,-0.218c-0.696,0 -1.812,-0.187 -2.526,-0.422c-1.426,-0.472 -2.42,-0.689 -2.585,-0.566c-0.049,0.037 0.002,0.483 0.113,0.988Zm14.835,-0.903c-0.215,0.211 -4.963,1.194 -5.795,1.199c-0.1,0.001 -0.12,0.328 -0.045,0.744c0.075,0.416 0.245,0.743 0.387,0.743c0.135,0 0.176,0.208 0.089,0.446l-0.164,0.446l2.63,-0.045c1.546,-0.026 2.973,-0.216 3.462,-0.461l0.832,-0.416l-0.189,-1.099c-0.328,-1.902 -0.557,-2.198 -1.207,-1.557Zm-75.512,-20.44c-2.037,0.758 -3.822,2.443 -4.886,4.612l-0.7,1.427l-0.104,3.105c-0.079,2.348 0.022,3.526 0.416,4.829c0.287,0.951 0.6,1.724 0.698,1.724c0.098,0 0.364,0.416 0.589,0.921c0.606,1.357 3.542,4.21 5.087,4.942c3.031,1.437 4.005,1.516 3.18,0.258c-0.847,-1.292 -1.688,-4.814 -1.681,-7.043c0.01,-3.358 0.754,-7.294 1.77,-9.36c0.497,-1.011 0.891,-1.945 0.891,-2.11c0,-0.164 0.268,-0.542 0.595,-0.84c0.841,-0.77 0.743,-1.357 -0.387,-2.304c-1.208,-1.015 -3.031,-1.068 -5.468,-0.161Zm51.34,17.955c-0.405,1.635 -0.174,2.052 1.289,2.333c0.565,0.108 1.411,0.39 1.917,0.639c0.493,0.242 1.605,0.622 2.437,0.832l1.53,0.386l0.149,-0.401c0.079,-0.213 -0.075,-0.743 -0.327,-1.129c-0.252,-0.386 -0.475,-0.923 -0.475,-1.144c0,-0.53 -1.278,-1.1 -2.467,-1.1c-0.594,0 -1.241,-0.266 -1.723,-0.709c-0.684,-0.627 -1.305,-0.988 -1.813,-1.051c-0.097,-0.013 -0.333,0.601 -0.517,1.344Zm38.325,-7.607c-0.304,0.564 -1.791,0.861 -1.791,0.356c0,-0.13 -0.49,-0.177 -1.085,-0.104c-0.861,0.107 -0.98,0.192 -0.579,0.415c0.482,0.268 1.564,1.799 2.573,3.642l0.488,0.891l1.931,0.164c1.457,0.123 2.188,0.361 2.972,0.965c0.565,0.436 1.163,0.803 1.308,0.803c0.151,0 0.488,0.386 0.777,0.891c0.526,0.921 0.649,1.001 2.016,1.316c0.413,0.094 1.047,0.646 1.426,1.24c0.38,0.594 0.75,1.008 0.833,0.931c0.178,-0.166 -0.808,-1.763 -2.465,-3.992c-1.592,-2.14 -7.251,-8.066 -7.728,-8.093c-0.197,-0.011 -0.501,0.248 -0.676,0.575Zm-7.393,0.757c-0.187,0.416 -0.341,1.087 -0.341,1.486c0,0.401 -0.335,1.263 -0.743,1.917c-0.409,0.654 -0.743,1.303 -0.743,1.441c0,0.137 -0.613,0.907 -1.338,1.679c-1.03,1.1 -1.294,1.59 -1.151,2.14c0.288,1.103 0.591,1.04 1.728,-0.357c0.706,-0.868 1.682,-1.606 2.782,-2.104c2.407,-1.089 2.795,-1.249 3.536,-1.452c0.386,-0.106 0.683,-0.317 0.683,-0.485c0,-0.441 -0.884,-1.783 -1.879,-2.853c-0.525,-0.565 -0.812,-1.132 -0.706,-1.397c0.162,-0.404 -0.208,-0.64 -1.159,-0.738c-0.179,-0.019 -0.481,0.307 -0.669,0.723Zm-22.689,-19.156c-0.464,0.246 -0.921,0.243 -1.783,-0.011l-1.159,-0.342l-1.872,0.621c-1.842,0.61 -4.161,1.935 -5.379,3.073c-0.324,0.303 -0.891,0.757 -1.248,0.999c-0.832,0.564 -0.883,1.579 -0.089,1.782c0.327,0.084 0.594,0.326 0.594,0.538c0,0.416 -1.109,0.925 -1.396,0.642c-0.465,-0.459 -1.271,0.517 -1.458,1.765c-0.191,1.278 0.237,4.378 0.752,5.439c0.126,0.261 0.484,1.01 0.795,1.664c0.31,0.654 0.718,1.349 0.906,1.545c0.189,0.197 0.648,0.862 1.025,1.486c0.378,0.624 0.85,1.229 1.055,1.352c0.193,0.116 0.558,0.416 0.758,0.624c0.214,0.222 0.773,0.495 1.248,0.609c0.481,0.116 1.257,0.61 1.754,1.115c0.64,0.651 1.485,1.053 3.001,1.427c2.467,0.609 2.615,0.467 1.689,-1.62c-0.342,-0.773 -0.546,-1.517 -0.456,-1.665c0.267,-0.439 0.933,-0.297 1.109,0.238c0.225,0.684 2.243,4.318 2.591,4.666c0.476,0.475 3.078,1.064 3.388,0.766c0.395,-0.379 -0.643,-2.549 -1.816,-3.797c-0.531,-0.565 -0.978,-1.231 -0.978,-1.456c0,-1.479 3.357,1.664 4.413,4.13c0.712,1.664 0.946,1.817 2.422,1.575c1.427,-0.234 1.564,-0.841 0.484,-2.139c-0.385,-0.464 -1.323,-1.754 -2.118,-2.913c-0.795,-1.159 -1.545,-2.126 -1.694,-2.184c-0.35,-0.137 0,-0.639 0.446,-0.639c0.604,0 3.198,2.645 4.372,4.458c0.238,0.368 0.744,1.04 1.096,1.456l0.654,0.773l0.832,-0.461c0.445,-0.247 0.873,-0.688 0.921,-0.951c0.049,-0.268 -0.564,-1.278 -1.352,-2.229c-0.789,-0.951 -1.765,-2.27 -2.155,-2.912c-0.397,-0.654 -0.818,-1.218 -0.951,-1.273c-0.38,-0.158 -0.267,-0.559 0.208,-0.739c0.494,-0.186 1.683,0.868 3.292,2.918c0.653,0.832 1.395,1.741 1.686,2.066c0.294,0.326 0.52,0.683 0.52,0.817c0,0.591 0.806,0.119 1.42,-0.832l0.69,-1.07l-0.461,-0.639c-0.254,-0.353 -0.892,-1.263 -1.426,-2.036c-0.534,-0.772 -1.271,-1.537 -1.649,-1.711c-0.754,-0.347 -0.743,-0.83 0.029,-1.32c0.689,-0.436 1.813,0.416 2.586,1.962c0.861,1.723 1.447,2.473 1.716,2.199c0.452,-0.461 0.419,-4.309 -0.054,-6.39c-0.46,-2.02 -2.016,-5.081 -2.584,-5.081c-0.152,0 -0.267,-0.179 -0.267,-0.416c0,-0.457 -2.11,-2.259 -2.645,-2.259c-0.18,0 -0.327,-0.312 -0.327,-0.698c0,-0.489 -0.356,-0.935 -1.188,-1.486c-0.654,-0.433 -1.296,-0.787 -1.427,-0.787c-0.132,0 -0.758,-0.375 -1.411,-0.847c-0.815,-0.588 -1.947,-0.997 -3.7,-1.338c-1.397,-0.271 -2.792,-0.544 -3.12,-0.611c-1.1,-0.223 -1.66,-0.187 -2.289,0.147Zm-12.948,22.143c-1.475,2.259 -1.859,3.098 -1.465,3.204c0.197,0.052 1.13,0.341 2.081,0.644l1.723,0.55l0.253,-0.401c0.141,-0.224 0.337,-0.966 0.444,-1.679c0.195,-1.308 -0.249,-2.496 -0.934,-2.496c-0.175,0 -0.497,-0.208 -0.691,-0.446c-0.507,-0.621 -0.635,-0.565 -1.411,0.624Zm-4.778,-5.245l-1.887,1.025l0.163,0.609c0.092,0.34 0.381,1.531 0.655,2.69c0.87,3.685 1.273,3.851 2.672,1.099c0.529,-1.04 1.249,-2.225 1.59,-2.615c0.621,-0.713 0.821,-1.605 0.358,-1.605c-0.131,0 -0.492,-0.534 -0.802,-1.188c-0.311,-0.654 -0.632,-1.155 -0.713,-1.115c-0.082,0.041 -0.996,0.535 -2.036,1.1Zm44.383,-0.431l-0.06,-0.594c-0.033,-0.33 -0.146,-0.951 -0.255,-1.397c-0.283,-1.163 0.521,-1.129 1.401,0.059c0.704,0.951 1.608,1.066 2.11,0.268c0.205,-0.326 0.033,-0.862 -0.641,-1.991c-0.513,-0.862 -1,-1.874 -1.099,-2.288c-0.1,-0.416 -0.296,-0.743 -0.446,-0.743c-0.35,0 -0.327,-0.816 0.03,-1.033c0.468,-0.286 1.502,0.973 2.8,3.41c0.822,1.545 1.644,1.745 2.079,0.505c0.219,-0.624 0.187,-0.995 -0.128,-1.486c-1.105,-1.723 -2.081,-3.67 -2.085,-4.16c-0.01,-1.043 0.999,-0.386 1.92,1.248c1.205,2.14 1.56,2.193 1.779,0.268c0.453,-3.983 0.409,-5.852 -0.163,-6.984c-0.3,-0.594 -0.556,-1.345 -0.556,-1.634c0,-0.836 -0.684,-1.172 -5.646,-2.772c-0.892,-0.288 -1.77,-0.622 -1.932,-0.735c-0.163,-0.114 -1.56,-0.642 -3.105,-1.174c-1.546,-0.531 -3.123,-1.173 -3.507,-1.426c-0.383,-0.253 -2.065,-0.769 -3.729,-1.144c-1.661,-0.375 -4.577,-1.107 -6.449,-1.62c-1.872,-0.513 -4.089,-1.116 -4.903,-1.335c-2.14,-0.575 -4.345,-1.325 -5.201,-1.77c-0.409,-0.213 -1.545,-0.614 -2.526,-0.892c-0.981,-0.278 -2.318,-0.773 -2.972,-1.1c-1.693,-0.846 -5.75,-2.36 -6.983,-2.605c-1.264,-0.251 -1.575,-0.157 -3.269,0.98c-3.031,2.035 -4.704,3.552 -5.466,4.954l-0.775,1.426l0,5.498l0.921,1.872c1.285,2.616 2.586,3.919 5.706,5.717c1.427,0.822 2.165,0.828 2.604,0.019c0.189,-0.348 1.26,-1.526 2.418,-2.66l2.081,-2.036l4.695,-1.575l6.746,0l0.399,-1.01c0.563,-1.427 1.366,-2.111 2.008,-1.711c0.39,0.242 0.482,0.656 0.401,1.815l-0.104,1.501l1.025,0.341c0.565,0.189 1.253,0.249 1.531,0.134l0.505,-0.208l-0.193,-1.174c-0.137,-0.832 -0.072,-1.252 0.223,-1.441c0.653,-0.42 1.959,-0.294 2.15,0.208c0.282,0.743 0.194,2.74 -0.13,2.94c-0.623,0.383 -0.297,1.331 0.624,1.81c0.506,0.263 1.679,1.017 2.601,1.669c0.921,0.652 2.108,1.477 2.63,1.827c0.535,0.36 1.016,0.906 1.099,1.249c0.082,0.335 0.606,1.144 1.163,1.797c1.903,2.229 4.191,6.319 4.356,7.786l0.157,1.397l4.161,0Zm-45.167,-10.55c-0.099,0.163 -1.162,1.024 -2.351,1.905c-2.199,1.628 -3.447,3.016 -3.447,3.831c0,0.249 0.653,1.099 1.486,1.931c0.832,0.833 1.485,1.63 1.485,1.813c0,0.499 1.363,0.387 1.808,-0.148c0.743,-0.892 1.958,-1.333 2.799,-1.016l0.802,0.302l-0.196,-1.277c-0.432,-2.824 -0.504,-4.739 -0.19,-5.052c0.563,-0.563 0.356,-1.828 -0.357,-2.185c-0.862,-0.43 -1.612,-0.473 -1.839,-0.104Zm-4.476,-3.937c0.094,0.297 0.049,0.698 -0.104,0.936l-0.267,0.416l-0.773,-0.49c-0.497,-0.315 -1.07,-0.427 -1.605,-0.312c-1.545,0.331 -5.408,1.732 -5.408,1.961c0,0.125 -0.268,0.238 -0.565,0.238c-0.297,0 -0.733,0.211 -0.921,0.445c-0.19,0.238 -0.516,0.446 -0.698,0.446c-0.189,0 -0.977,0.654 -1.756,1.456c-1.444,1.486 -1.832,2.347 -0.874,1.936c1.901,-0.815 5.599,-0.498 6.894,0.591c1.01,0.849 2.473,1.373 2.882,1.033c0.209,-0.172 0.311,-0.444 0.223,-0.588c-0.093,-0.153 -0.029,-0.267 0.149,-0.267c0.174,0 0.312,-0.238 0.312,-0.535c0,-0.667 1.902,-2.676 3.715,-3.924c0.743,-0.511 1.337,-1.026 1.337,-1.158c0,-0.303 -1.427,-1.515 -1.783,-1.515c-0.147,0 -0.348,-0.268 -0.446,-0.595c-0.098,-0.327 -0.245,-0.594 -0.327,-0.594c-0.084,0 -0.078,0.223 0.015,0.52Zm-7.226,-4.347c0.022,0 0.038,0.001 0.049,0.003c0.387,0.046 5.078,0.801 5.171,0.833c0.033,0.01 0.494,0.643 1.011,1.386l0.951,1.367l-2.794,-1.634l-1.634,0.193c-0.892,0.105 -1.864,0.321 -2.14,0.475c-0.275,0.154 -1.575,0.799 -2.853,1.416c-3.536,1.708 -5.739,3.985 -6.237,6.444l-0.33,1.635l-1.575,-1.308c-0.862,-0.715 -2.04,-1.395 -2.601,-1.5l-1.025,-0.193l0,-1.382c0,-0.773 -0.203,-1.775 -0.462,-2.274c-0.637,-1.23 -0.192,-1.9 2.037,-3.061c2.061,-1.073 4.577,-1.662 9.064,-2.12c1.561,-0.16 2.996,-0.279 3.351,-0.28l0.017,0Zm-19.534,-8.952l0.98,0l0.181,1.1c0.224,1.368 0.865,4.071 1.536,6.478c0.503,1.808 0.475,3.507 -0.094,5.647c-0.363,1.367 0.146,2.526 1.111,2.526c0.426,0 0.594,0.252 0.684,1.025l0.119,1.025l-1.516,0.225c-1.426,0.211 -1.825,0.233 -2.526,0.141c-0.168,-0.022 -0.226,-0.336 -0.133,-0.723c0.106,-0.446 -0.049,-0.951 -0.449,-1.456c-0.729,-0.921 -0.781,-1.253 -0.161,-1.019c0.222,0.084 0.588,-0.051 0.784,-0.288c0.467,-0.568 0.16,-5.587 -0.479,-7.846c-0.623,-2.199 -1.343,-6.292 -1.161,-6.597c0.078,-0.129 0.589,-0.238 1.124,-0.238Zm107.145,16.107l0.639,0.684l-0.219,-0.595c-0.22,-0.594 -0.742,-1.089 -0.94,-0.891c-0.067,0.067 0.159,0.416 0.52,0.802Zm-111.424,-15.512l0.534,0c0.565,0 1.013,1.337 1.395,4.16c0.101,0.749 0.352,1.991 0.571,2.823c0.843,3.21 1.118,4.808 1.02,5.914l-0.103,1.159l-1.218,-1.902l-1.219,-1.902l0,-2.08c0,-1.159 -0.138,-2.804 -0.312,-3.715c-0.17,-0.891 -0.393,-2.276 -0.49,-3.046l-0.178,-1.411Zm20.059,0.191c-0.624,0.217 -1.605,0.746 -2.125,1.146c-0.535,0.412 -1.092,0.743 -1.248,0.743c-0.17,0 -0.324,0.095 -0.387,0.238c-0.057,0.131 -0.728,0.662 -1.5,1.188c-1.011,0.688 -1.422,1.178 -1.486,1.769c-0.064,0.587 -0.357,0.942 -1.04,1.263c-0.535,0.25 -0.99,0.705 -1.04,1.04c-0.052,0.343 -0.372,0.632 -0.758,0.683c-0.357,0.048 -0.676,0.048 -0.684,0c-0.008,-0.049 -0.085,-1.218 -0.173,-2.615c-0.233,-3.715 -0.773,-6.078 -1.417,-6.199c-0.297,-0.056 -0.653,0.018 -0.802,0.166c-0.317,0.318 0.222,3.715 0.797,5.023c0.216,0.492 0.485,1.783 0.6,2.882c0.115,1.1 0.321,1.991 0.46,1.991c0.138,0 0.922,-0.412 1.724,-0.906c0.802,-0.494 1.985,-0.988 2.6,-1.085c0.624,-0.098 1.2,-0.271 1.287,-0.386c0.218,-0.288 5.281,-0.892 7.48,-0.892c1.04,0 2.636,0.209 3.521,0.461c0.892,0.254 1.9,0.534 2.244,0.624l0.624,0.164l-0.223,-1.442c-0.124,-0.802 -0.183,-1.573 -0.134,-1.738c0.05,-0.166 0.169,-1.219 0.268,-2.378l0.178,-2.08l-2.125,-0.074c-1.159,-0.04 -2.178,-0.128 -2.243,-0.193c-0.23,-0.23 -3.15,0.174 -4.398,0.607Zm67.309,7c0,0.565 4.103,2.495 4.487,2.11c0.75,-0.749 0.119,-1.369 -1.783,-1.754c-1.04,-0.211 -1.966,-0.453 -2.045,-0.534c-0.295,-0.306 -0.659,-0.208 -0.659,0.178Zm-90.251,-6.894l0.535,0c0.409,0 0.608,0.401 0.847,1.709c0.174,0.951 0.444,2.348 0.609,3.15c0.166,0.802 0.297,1.757 0.297,2.154l0,0.713l-0.594,-0.371c-0.327,-0.204 -0.595,-0.538 -0.595,-0.743c0,-0.198 -0.208,-0.371 -0.445,-0.371c-0.238,0 -0.453,-0.104 -0.461,-0.223c-0.008,-0.124 -0.055,-1.516 -0.104,-3.121l-0.089,-2.897Zm71.901,-40.653c-1.011,0.323 -1.925,0.71 -2.006,0.847c-0.083,0.14 -0.907,0.47 -1.858,0.743c-0.951,0.273 -2.038,0.712 -2.451,0.99c-0.714,0.481 -1.189,0.715 -4.309,2.127c-0.811,0.366 -2.601,1.462 -3.938,2.41c-1.337,0.948 -2.532,1.739 -2.63,1.739c-0.639,0 -9.135,8.261 -9.779,9.509l-0.414,0.802l0.728,0.342c0.387,0.181 0.728,0.475 0.728,0.624c0,0.159 0.51,0.818 1.16,1.501c2.263,2.377 2.38,4.48 0.326,5.84l-1.188,0.787l-1.249,-0.208c-0.684,-0.114 -2.154,-0.685 -3.254,-1.263l-2.005,-1.055l-0.877,0.698c-0.478,0.381 -1.129,1.144 -1.43,1.679c-0.628,1.112 -0.398,1.763 0.821,2.319c0.396,0.181 1.307,0.623 2.05,0.995l1.337,0.668l1.783,-0.494c3.626,-1.005 4.342,-1.116 5.082,-0.787c0.802,0.357 0.949,1.36 0.238,1.634c-0.269,0.103 -0.817,0.182 -1.263,0.182c-0.446,0 -0.981,0.123 -1.233,0.283c-0.355,0.224 -0.208,0.379 0.713,0.757c0.624,0.257 1.474,0.398 1.842,0.307c0.654,-0.161 1.605,0.45 1.605,1.031c0,0.131 0.966,0.524 2.154,0.876c1.192,0.354 3.284,1.038 4.681,1.531c1.385,0.489 3.774,1.153 5.29,1.471c1.515,0.318 2.991,0.693 3.268,0.832c0.276,0.138 1.397,0.407 2.467,0.593c2.467,0.428 7.633,1.947 9.777,2.875c0.891,0.386 2.02,0.788 2.481,0.885c0.461,0.097 1.471,0.454 2.214,0.781c3.982,1.756 4.875,2.072 4.751,1.686c-0.063,-0.194 -0.709,-0.654 -1.422,-1.01c-1.367,-0.684 -2.171,-1.517 -1.892,-1.962c0.088,-0.14 0.435,-0.183 0.733,-0.089c0.356,0.113 0.628,0.014 0.738,-0.267c0.305,-0.784 1.057,-0.506 2.327,0.861l1.214,1.308l2.912,0.698l2.912,0.699l-0.089,-1.352l-0.089,-1.353l-0.594,-0.096c-0.492,-0.081 -4.636,-2 -9.658,-4.473c-1.189,-0.586 -1.573,-1.523 -0.624,-1.523c0.674,0 1.604,0.355 7.31,2.784c2.14,0.911 3.949,1.552 4.056,1.436c0.107,-0.115 0.061,-0.951 -0.104,-1.872l-0.297,-1.664l-1.976,-0.624c-1.093,-0.345 -3.105,-1.109 -4.502,-1.709c-3.002,-1.288 -3.374,-1.35 -3.506,-0.579c-0.225,1.305 -3.032,2.788 -5.32,2.811l-1.248,0.012l-1.427,-1.23c-3.031,-2.613 -3.642,-3.777 -3.211,-6.11c0.259,-1.397 1.471,-3.061 2.231,-3.061c0.311,0 1.604,0.153 2.882,0.342l2.318,0.341l1.412,1.442c0.786,0.802 1.411,1.638 1.411,1.887c0,0.51 2.407,1.751 4.607,2.373c0.814,0.23 2.466,0.783 3.655,1.224c2.496,0.925 2.838,0.789 2.548,-1.012l-0.201,-1.248l-1.218,-0.327c-0.675,-0.181 -2.08,-0.665 -3.15,-1.085c-1.068,-0.419 -3.061,-1.168 -4.458,-1.677c-3.298,-1.201 -3.832,-1.518 -3.358,-1.993c0.474,-0.473 2.556,-0.011 7.549,1.677c2.05,0.693 3.892,1.171 4.071,1.057c0.234,-0.149 0.209,-0.431 -0.089,-0.995c-0.236,-0.446 -0.455,-1.065 -0.506,-1.427c-0.061,-0.44 -0.505,-0.802 -1.426,-1.162c-1.278,-0.5 -6.203,-2.742 -7.132,-3.246c-0.251,-0.136 -0.486,-0.45 -0.538,-0.718c-0.182,-0.941 1.727,-0.509 6.125,1.387l2.437,1.05l-0.186,-1.248c-0.242,-1.632 -0.409,-1.809 -2.4,-2.559c-3.09,-1.164 -7.964,-3.726 -7.964,-4.187c0,-0.692 1.248,-0.689 2.585,0.006c0.681,0.353 2.066,0.952 3.046,1.316c0.981,0.365 2.035,0.77 2.318,0.892c0.416,0.178 0.52,0.074 0.52,-0.52c0,-0.862 -0.812,-2.586 -1.218,-2.586c-0.166,0 -0.981,-0.308 -1.843,-0.698c-0.861,-0.389 -2.136,-0.928 -2.882,-1.218c-2.229,-0.866 -2.818,-1.217 -2.913,-1.739c-0.142,-0.771 1.16,-0.646 4.102,0.395c1.367,0.484 2.603,0.883 2.734,0.883c0.437,0 0.237,-1.426 -0.283,-2.021c-0.282,-0.322 -0.995,-0.764 -1.56,-0.965c-6.835,-2.439 -6.942,-2.5 -6.282,-3.522l0.249,-0.386l2.734,0.953c2.764,0.963 3.447,1.002 2.608,0.146c-0.249,-0.252 -0.612,-0.832 -0.839,-1.337c-0.264,-0.586 -0.743,-1.004 -1.397,-1.218c-0.551,-0.181 -2.244,-0.918 -3.789,-1.65c-2.05,-0.97 -2.793,-1.472 -2.793,-1.887c0,-1.036 0.653,-0.97 3.15,0.318c1.367,0.704 2.597,1.179 2.719,1.049c0.122,-0.131 -0.045,-0.431 -0.372,-0.668c-0.328,-0.238 -1.56,-1.364 -2.749,-2.512l-2.154,-2.08l-2.155,0.193c-1.188,0.107 -2.986,0.46 -4.011,0.788Zm26.374,46.062c0,0.178 0.178,0.154 0.445,-0.06c0.238,-0.19 0.446,-0.405 0.446,-0.461c0,-0.055 -0.208,-0.027 -0.446,0.06c-0.237,0.087 -0.445,0.302 -0.445,0.461Zm-101.395,-4.815l1.456,0l0.186,1.1c0.276,1.634 0.249,2.764 -0.067,2.764c-0.377,0 -1.158,-1.605 -1.389,-2.853l-0.186,-1.011Zm101.513,2.612c0.325,0.317 2.706,-0.858 3.244,-1.601l0.56,-0.773l-0.665,-1.307c-0.801,-1.576 -1.376,-2.122 -2.366,-2.251l-0.743,-0.097l-0.089,2.942c-0.048,1.605 -0.021,3.008 0.059,3.087Zm-104.128,-1.75c0,0.125 0.267,0.48 0.564,0.748c0.661,0.598 1.189,0.114 0.621,-0.57c-0.395,-0.475 -1.185,-0.594 -1.185,-0.178Zm81.603,-11.987c-0.663,0.654 -0.908,2.299 -0.467,3.131c0.204,0.386 0.937,1.293 1.596,1.977c0.917,0.951 1.454,1.263 2.169,1.263c1.338,0 2.363,-0.465 2.949,-1.338l0.499,-0.743l-0.38,-1.337c-0.506,-1.783 -1.551,-2.888 -2.503,-2.647c-0.407,0.103 -1.07,-0.013 -1.545,-0.272c-1.1,-0.599 -1.736,-0.608 -2.318,-0.034Zm-53.788,0.329c-0.743,0.102 -1.367,0.269 -1.367,0.366c0,0.098 1.56,0.629 3.492,1.188c1.931,0.559 3.624,1.104 3.789,1.219c0.163,0.114 1.099,0.522 2.08,0.906c0.98,0.384 2.157,1.001 2.615,1.371c1.065,0.861 1.664,0.857 2.942,-0.019c0.575,-0.394 1.664,-1.072 2.437,-1.516c1.515,-0.872 1.562,-1.16 0.208,-1.265l-0.922,-0.072l0,0.595c0,0.73 -1.04,0.807 -1.783,0.132c-0.281,-0.256 -0.906,-0.485 -1.411,-0.519c-0.505,-0.033 -0.847,-0.158 -0.773,-0.282c0.077,-0.127 -0.044,-0.223 -0.282,-0.223c-0.233,0 -0.862,-0.222 -1.427,-0.502c-2.431,-1.209 -6.537,-1.799 -9.598,-1.379Zm74.279,-14.018c0.007,0.166 0.106,1.486 0.222,2.972c0.114,1.467 0.349,4.755 0.52,7.281c0.171,2.526 0.466,5.452 0.654,6.478l0.341,1.872l1.352,-0.089l1.353,-0.089l-0.09,-1.189c-0.049,-0.657 -0.361,-2.317 -0.698,-3.714c-0.338,-1.403 -0.727,-3.715 -0.876,-5.201c-0.251,-2.526 -1.039,-7.548 -1.318,-8.41c-0.142,-0.438 -1.481,-0.356 -1.46,0.089Zm13.713,15.899c0.511,0 0.781,-0.342 1.234,-1.56c0.322,-0.868 0.671,-2.318 0.787,-3.269c0.131,-1.07 0.353,-1.709 0.594,-1.709c0.623,0 0.685,0.892 0.224,3.21c-0.236,1.189 -0.364,2.236 -0.283,2.318c0.083,0.082 1.367,-0.275 2.883,-0.803c1.901,-0.661 3.015,-1.24 3.657,-1.901c4.171,-4.293 6.591,-9.361 7.523,-15.751c0.251,-1.723 1.886,-7.897 1.411,-8.203c-0.216,-0.139 -0.803,-11.083 -1.035,-12.153c-0.096,-0.445 -0.312,-0.802 -0.486,-0.802c-0.208,0 -0.193,-0.119 0.045,-0.356c0.195,-0.196 0.357,-0.922 0.357,-1.605c0,-0.684 -9.178,-12.947 -10.02,-13.284c-0.832,-0.333 -1.316,-0.325 -1.991,0.033c-0.318,0.17 4.402,12.433 4.402,12.76c0,0.318 -0.389,1.753 -0.862,3.18c-0.473,1.426 -1.217,3.767 -1.649,5.186c-0.435,1.426 -0.908,2.66 -1.055,2.751c-0.29,0.18 -1.528,2.746 -1.899,3.935c-0.536,1.719 -3.809,6.627 -5.727,8.588c-1.755,1.795 -2.835,2.263 -5.866,2.545c-2.764,0.258 -3.246,0.515 -2.979,1.586c0.089,0.356 0.194,0.809 0.245,1.055c0.048,0.23 0.166,0.639 0.254,0.876c0.17,0.461 0.666,4.101 0.99,7.281c0.101,0.986 0.448,3.031 0.777,4.577c0.329,1.545 0.528,3.039 0.446,3.343c-0.089,0.327 0.008,0.55 0.237,0.55c0.571,0 1.284,-4.577 1.483,-9.51c0.181,-4.517 0.476,-6.09 1.192,-6.356c0.625,-0.232 0.852,0.323 0.508,1.245c-0.165,0.442 -0.373,3.001 -0.463,5.705c-0.091,2.734 -0.354,5.693 -0.595,6.687c-0.237,0.98 -0.377,1.836 -0.312,1.902c0.227,0.226 3.05,-0.922 3.509,-1.427c0.773,-0.849 0.94,-4.428 0.343,-7.31c-0.272,-1.308 -0.563,-2.725 -0.648,-3.15c-0.131,-0.654 0.313,-1.427 0.632,-1.1c0.048,0.049 0.448,1.427 0.889,3.061c0.634,2.348 0.781,3.487 0.699,5.424l-0.104,2.451l0.653,0Zm-71.024,-12.778l1.664,0c0.922,0 1.744,0.133 1.843,0.297c0.096,0.161 0.832,0.576 1.605,0.905c1.578,0.673 2.407,1.948 2.407,3.701c0,1.757 -1.516,2.11 -4.012,0.935c-2.259,-1.062 -3.133,-2.157 -3.338,-4.174l-0.169,-1.664Zm54.017,-3.269c-0.197,0.317 0.055,1.129 1.061,3.417c0.288,0.654 0.617,1.457 0.731,1.783l0.208,0.595l0.266,-0.892c0.284,-0.951 0.048,-3.839 -0.381,-4.665c-0.293,-0.565 -1.581,-0.727 -1.885,-0.238Zm-63.556,-6.686l-0.99,-1.754c-1.175,-2.08 -1.259,-2.72 -0.317,-2.433c1.277,0.39 1.567,0.323 1.67,-0.39c0.133,-0.924 -0.422,-1.285 -1.641,-1.069c-1.248,0.222 -2.169,-0.271 -2.169,-1.16c0,-0.386 -0.084,-0.767 -0.193,-0.876c-0.107,-0.107 -0.433,-0.892 -0.728,-1.754l-0.535,-1.56l0.298,-2.08c0.703,-4.903 1.717,-6.939 5.533,-11.114c1.249,-1.367 2.639,-3.048 3.071,-3.715c0.924,-1.426 6.317,-6.328 6.788,-6.716c0.147,-0.12 3.106,-2.017 4.711,-2.823c1.604,-0.807 3.56,-1.874 4.383,-2.392c0.832,-0.525 1.695,-1.012 1.961,-1.108c1.142,-0.411 1.13,0.707 -0.034,3.203c-0.485,1.04 -0.887,2.01 -0.887,2.139c0,0.133 -0.604,1.427 -1.358,2.913c-1.495,2.942 -3.397,8.334 -3.397,9.628c0,0.459 -0.2,1.486 -0.446,2.288c-0.249,0.816 -0.445,2.11 -0.445,2.942c0,0.832 -0.119,1.996 -0.269,2.645c-0.658,2.84 1.547,7.443 5.113,10.675c1.248,1.131 2.288,2.168 2.288,2.282c0,0.277 -2.266,2.734 -6.002,6.508c-1.707,1.723 -2.895,3.175 -2.958,3.61l-0.104,0.729l-1.545,-0.104c-0.862,-0.058 -1.992,0.06 -2.556,0.267l-1.01,0.371l-0.609,-0.609c-0.327,-0.327 -0.864,-0.761 -1.159,-0.936l-0.55,-0.327l0.446,-0.297c0.237,-0.158 0.598,-0.24 0.772,-0.175c0.565,0.211 1.41,-0.585 1.203,-1.132l-0.192,-0.506l-2.021,0.193l-2.021,0.194l-1.101,-1.219c-1.101,-1.218 -1.426,-2.327 -0.741,-2.53c0.207,-0.061 0.772,-0.204 1.218,-0.308c0.654,-0.151 0.813,-0.333 0.743,-0.847l-0.089,-0.653l-4.131,0Z"/></g></svg>