<?xml version="1.0" encoding="UTF-8" standalone="no"?><!DOCTYPE svg PUBLIC "-//W3C//DTD SVG 1.1//EN" "http://www.w3.org/Graphics/SVG/1.1/DTD/svg11.dtd"><svg width="100%" height="100%" viewBox="0 0 50 50" version="1.1" xmlns="http://www.w3.org/2000/svg" xmlns:xlink="http://www.w3.org/1999/xlink" xml:space="preserve" style="fill-rule:evenodd;clip-rule:evenodd;stroke-linejoin:round;stroke-miterlimit:1.41421;"><path d="M40.855,35.072l0,0.29c0,0.27 -0.029,0.555 -0.087,0.855c-0.058,0.299 -0.087,0.584 -0.087,0.855c0.038,0.734 0.135,1.493 0.289,2.275c0.156,0.782 0.232,1.532 0.232,2.247c0,0.482 -0.067,0.927 -0.203,1.332c-0.134,0.407 -0.366,0.774 -0.695,1.102c-0.231,0.232 -0.58,0.386 -1.044,0.464c-0.464,0.078 -0.965,0.242 -1.507,0.493c-0.386,0.174 -0.724,0.362 -1.014,0.565c-0.29,0.203 -0.58,0.304 -0.87,0.304c-0.367,0 -0.816,-0.082 -1.348,-0.246c-0.531,-0.164 -1.087,-0.367 -1.666,-0.609c-0.58,-0.241 -1.149,-0.497 -1.71,-0.768c-0.56,-0.27 -1.043,-0.521 -1.449,-0.753c-0.522,-0.271 -0.923,-0.58 -1.204,-0.928c-0.279,-0.348 -0.477,-0.768 -0.594,-1.261c-0.115,-0.493 -0.183,-1.082 -0.202,-1.768c-0.02,-0.686 -0.03,-1.522 -0.03,-2.507c0,-0.772 0.01,-1.652 0.03,-2.638c0.019,-0.985 0.029,-1.922 0.029,-2.811c0,-0.676 0.005,-1.396 0.014,-2.16c0.01,-0.763 -0.13,-1.454 -0.42,-2.072c-0.154,-0.154 -0.454,-0.251 -0.899,-0.29c-0.444,-0.038 -0.936,-0.057 -1.478,-0.057c-0.444,0 -0.894,0.009 -1.348,0.029c-0.454,0.019 -0.874,0.028 -1.26,0.028c-0.541,0 -1.01,-0.096 -1.406,-0.289c-0.396,-0.193 -0.798,-0.29 -1.203,-0.29c-0.193,0 -0.411,0.067 -0.652,0.202c-0.241,0.136 -0.362,0.425 -0.362,0.87c0,0.213 0.019,0.449 0.058,0.71c0.039,0.261 0.076,0.507 0.115,0.739c0.039,0.232 0.078,0.44 0.117,0.624c0.039,0.183 0.057,0.304 0.057,0.362c0,0.714 -0.028,1.41 -0.086,2.087c-0.059,0.676 -0.088,1.265 -0.088,1.768c0,0.425 0.039,0.918 0.117,1.478c0.076,0.56 0.159,1.15 0.246,1.768c0.087,0.618 0.169,1.256 0.246,1.913c0.077,0.657 0.116,1.285 0.116,1.884c0,1.004 -0.121,1.822 -0.362,2.45c-0.241,0.627 -0.628,1.119 -1.16,1.478c-0.531,0.357 -1.221,0.603 -2.072,0.738c-0.85,0.136 -1.875,0.203 -3.072,0.203c-0.56,0 -1.082,-0.154 -1.566,-0.464c-0.482,-0.309 -0.908,-0.661 -1.275,-1.058c-0.367,-0.396 -0.657,-0.777 -0.87,-1.144c-0.212,-0.368 -0.318,-0.618 -0.318,-0.754c0,-0.232 0.029,-0.469 0.087,-0.71c0.058,-0.241 0.126,-0.493 0.202,-0.754c0.078,-0.261 0.146,-0.521 0.203,-0.782c0.058,-0.261 0.088,-0.507 0.088,-0.739c0,-0.328 -0.039,-0.662 -0.116,-1c-0.078,-0.339 -0.16,-0.672 -0.246,-1.001c-0.088,-0.328 -0.165,-0.656 -0.232,-0.985c-0.068,-0.328 -0.102,-0.637 -0.102,-0.928c0,-0.501 0.058,-1.038 0.173,-1.608c0.117,-0.569 0.175,-1.106 0.175,-1.609c0,-0.733 -0.019,-1.497 -0.058,-2.289c-0.039,-0.792 -0.058,-1.604 -0.058,-2.435c0,-0.425 0.004,-0.841 0.014,-1.246c0.01,-0.406 0.044,-0.831 0.102,-1.276c0.038,-0.212 0.106,-0.376 0.203,-0.493c0.096,-0.115 0.145,-0.279 0.145,-0.492c0,-0.368 -0.059,-0.715 -0.174,-1.043c-0.117,-0.329 -0.174,-0.677 -0.174,-1.043c0,-0.657 0.038,-1.402 0.116,-2.233c0.077,-0.83 0.168,-1.685 0.275,-2.565c0.106,-0.879 0.198,-1.758 0.276,-2.637c0.077,-0.88 0.115,-1.706 0.115,-2.478c0,-0.484 -0.063,-0.977 -0.188,-1.478c-0.126,-0.503 -0.188,-0.977 -0.188,-1.421c0,-0.213 0.076,-0.497 0.232,-0.855c0.154,-0.357 0.381,-0.71 0.681,-1.058c0.299,-0.348 0.666,-0.652 1.101,-0.913c0.434,-0.26 0.932,-0.391 1.492,-0.391c0.619,0 1.145,0.072 1.58,0.217c0.435,0.146 0.792,0.334 1.073,0.566c0.28,0.231 0.483,0.482 0.608,0.753c0.126,0.271 0.188,0.532 0.188,0.782c0,0.445 -0.029,0.889 -0.086,1.334c-0.058,0.444 -0.087,0.773 -0.087,0.986c0.039,0.269 0.121,0.545 0.246,0.826c0.125,0.279 0.218,0.613 0.276,0.999c0.115,0.696 0.198,1.464 0.246,2.304c0.048,0.841 0.087,1.624 0.116,2.348c0.029,0.725 0.053,1.343 0.073,1.856c0.019,0.511 0.057,0.796 0.115,0.855c0.136,0.134 0.435,0.236 0.899,0.303c0.464,0.068 0.985,0.117 1.565,0.146c0.58,0.029 1.179,0.047 1.797,0.057c0.618,0.01 1.16,0.024 1.623,0.044c0.328,0.039 0.695,0.087 1.102,0.145c0.406,0.058 0.802,0.087 1.188,0.087c0.599,0 0.99,-0.155 1.174,-0.464c0.184,-0.309 0.275,-0.714 0.275,-1.217c0,-0.503 -0.043,-1.014 -0.13,-1.536c-0.088,-0.522 -0.13,-0.938 -0.13,-1.247c0,-0.29 0.062,-0.55 0.188,-0.782c0.125,-0.232 0.188,-0.464 0.188,-0.696c0,-0.986 -0.063,-1.985 -0.188,-3c-0.126,-1.014 -0.188,-1.956 -0.188,-2.826c0,-0.347 0.052,-0.777 0.159,-1.29c0.106,-0.512 0.294,-1.009 0.565,-1.492c0.271,-0.484 0.637,-0.899 1.101,-1.246c0.464,-0.349 1.063,-0.522 1.798,-0.522c0.501,0 1.087,0.082 1.752,0.246c0.667,0.164 1.31,0.372 1.928,0.623c0.619,0.251 1.179,0.537 1.682,0.855c0.502,0.319 0.85,0.633 1.043,0.942c0.174,0.271 0.294,0.594 0.362,0.971c0.068,0.377 0.117,0.783 0.145,1.218c0.029,0.435 0.043,0.878 0.043,1.333c0,0.454 0.02,0.884 0.059,1.289c0.038,0.581 0.087,1.228 0.144,1.942c0.058,0.716 0.131,1.459 0.218,2.233c0.087,0.772 0.198,1.555 0.334,2.347c0.134,0.792 0.318,1.546 0.55,2.261c0.077,0.29 0.183,0.556 0.319,0.797c0.135,0.242 0.265,0.473 0.391,0.695c0.125,0.222 0.232,0.435 0.319,0.638c0.087,0.204 0.121,0.402 0.101,0.595c0,0.27 -0.029,0.531 -0.087,0.782c-0.057,0.251 -0.086,0.542 -0.086,0.87c0,0.753 0.086,1.565 0.26,2.435c0.175,0.869 0.261,1.739 0.261,2.607c0,0.31 -0.01,0.61 -0.029,0.899c-0.02,0.29 -0.028,0.571 -0.028,0.841c0,0.29 0.037,0.585 0.115,0.884c0.078,0.3 0.164,0.594 0.261,0.884c0.096,0.29 0.184,0.579 0.261,0.869c0.077,0.291 0.125,0.58 0.145,0.87l0,0Z" style="fill:#f55c22;fill-rule:nonzero;stroke:#f55c22;stroke-width:1px;"/></svg>