<?xml version="1.0" encoding="UTF-8" standalone="no"?><!DOCTYPE svg PUBLIC "-//W3C//DTD SVG 1.1//EN" "http://www.w3.org/Graphics/SVG/1.1/DTD/svg11.dtd"><svg width="100%" height="100%" viewBox="0 0 80 80" version="1.1" xmlns="http://www.w3.org/2000/svg" xmlns:xlink="http://www.w3.org/1999/xlink" xml:space="preserve" style="fill-rule:evenodd;clip-rule:evenodd;stroke-linejoin:round;stroke-miterlimit:1.41421;"><g><circle cx="40" cy="40" r="40" style="fill:#497b4d;"/><path d="M31.906,15.038l0.094,2.962l-3.695,-3.646l-0.587,11.789l-3.718,9.857l6.979,19.393l21.1,22.75c3.394,-0.982 8.679,-3.342 13.458,-7.299c4.359,-3.609 8.263,-8.615 10.621,-13.726l-44.252,-42.08Z" style="fill:#000801;fill-opacity:0.529412;"/><path d="M28.572,15.608c0.12,0.705 0.607,4.631 1.085,8.729l0.867,7.447l-0.749,0.552c-0.394,0.29 -1.011,0.702 -1.301,0.87c-1.436,0.828 0.134,4.843 4.342,11.109c2.7,4.019 6.421,8.162 7.803,8.688c0.782,0.297 1.223,0.2 2.129,-0.472l1.144,-0.848l7.69,3.685c4.219,2.021 7.769,3.88 7.867,4.118c0.096,0.235 -0.273,1.458 -0.809,2.679c-1.667,2.609 -4.2,3.613 -7.571,3.062c-7.631,-0.947 -15.063,-4.724 -20.553,-10.313c-1.035,-1.054 -2.001,-2.173 -2.886,-3.349c-5.971,-7.933 -8.403,-14.816 -8.353,-23.643c0.027,-4.689 1.091,-9.819 2.411,-11.624c0.848,-1.159 2.803,-1.913 5.051,-1.946l1.616,-0.024l0.217,1.28Zm25.257,36.107c3.076,1.479 5.239,2.794 5.911,3.594c1.127,1.339 0.933,2.026 0.432,2.823c-0.248,0.395 -1.729,-0.814 -7.329,-3.611c-3.982,-1.99 -7.86,-3.59 -7.947,-3.676c-0.084,-0.085 0.607,-0.541 0.869,-0.856c0.947,-1.135 3.056,-0.683 8.064,1.726Zm-21.885,-36.638c1.023,1.022 1.795,3.991 2.051,9.586c0.301,3.469 -0.196,5.163 -0.847,5.996c-0.7,0.895 -1.494,0.739 -1.619,-0.108c-0.27,-1.221 -1.517,-14.328 -1.517,-15.396c0,-1.024 0.947,-1.063 1.932,-0.078Z" style="fill:#f2f2f2;"/></g></svg>